<svg xmlns="http://www.w3.org/2000/svg" viewBox="0 0 170.52456286427977 256" clip-path="url(#clip)"><defs><clipPath id="clip" clipPathUnits="objectBoundingBox"><rect x="0" y="0" width="170.52456286427977" height="256"/></clipPath></defs><rect x="0" y="0" width="170.52456286427977" height="256" fill="rgb(211, 209, 199)"/><path d="M73,37L112,61L71,155Z" fill="rgb(61, 19, 2)" fill-opacity="0.68"/><path d="M23,-50L33,51L23,135Z" fill="rgb(47, 3, 1)" fill-opacity="0.65"/><path d="M145,106L141,-27L152,13Z" fill="rgb(38, 1, 6)" fill-opacity="0.60"/><path d="M52,298L59,205L74,228Z" fill="rgb(110, 46, 20)" fill-opacity="0.68"/><path d="M112,171L67,33L57,247Z" fill="rgb(149, 121, 100)" fill-opacity="0.63"/><path d="M148,73L151,187L141,190Z" fill="rgb(100, 59, 59)" fill-opacity="0.66"/><path d="M30,141L29,82L23,140Z" fill="rgb(92, 32, 25)" fill-opacity="0.69"/><path d="M142,195L147,347L151,195Z" fill="rgb(113, 76, 70)" fill-opacity="0.77"/><path d="M108,227L96,234L126,310Z" fill="rgb(96, 22, 0)" fill-opacity="0.59"/><path d="M70,35L42,241L29,37Z" fill="rgb(255, 255, 254)" fill-opacity="0.78"/><path d="M139,219L76,-77L138,10Z" fill="rgb(254, 255, 253)" fill-opacity="0.75"/><path d="M72,43L108,106L111,69Z" fill="rgb(8, 0, 3)" fill-opacity="0.62"/><path d="M97,47L79,102L78,40Z" fill="rgb(41, 18, 15)" fill-opacity="0.64"/><path d="M131,26L34,23L47,-91Z" fill="rgb(251, 251, 248)" fill-opacity="0.99"/><path d="M23,123L32,182L23,297Z" fill="rgb(85, 22, 12)" fill-opacity="0.51"/><path d="M139,119L142,145L151,115Z" fill="rgb(109, 80, 77)" fill-opacity="0.48"/><path d="M107,91L98,51L61,83Z" fill="rgb(41, 19, 19)" fill-opacity="0.64"/><path d="M121,131L86,84L77,132Z" fill="rgb(204, 167, 127)" fill-opacity="0.61"/><path d="M111,198L74,212L94,220Z" fill="rgb(69, 69, 70)" fill-opacity="0.49"/><path d="M99,36L34,58L55,33Z" fill="rgb(252, 252, 250)" fill-opacity="0.85"/><path d="M148,185L107,204L121,271Z" fill="rgb(254, 255, 253)" fill-opacity="0.61"/><path d="M33,276L17,245L29,244Z" fill="rgb(48, 14, 0)" fill-opacity="0.50"/><path d="M144,25L72,25L150,38Z" fill="rgb(69, 48, 0)" fill-opacity="0.24"/><path d="M17,275L-61,246L24,237Z" fill="rgb(177, 168, 146)" fill-opacity="1.00"/><path d="M90,162L119,157L54,108Z" fill="rgb(121, 59, 33)" fill-opacity="0.41"/><path d="M88,319L99,238L68,237Z" fill="rgb(255, 255, 253)" fill-opacity="0.63"/><path d="M17,188L59,231L55,181Z" fill="rgb(247, 248, 245)" fill-opacity="0.56"/><path d="M169,265L149,240L139,257Z" fill="rgb(23, 0, 0)" fill-opacity="0.35"/><path d="M100,188L108,188L98,210Z" fill="rgb(105, 104, 100)" fill-opacity="0.55"/><path d="M54,194L121,181L60,144Z" fill="rgb(169, 174, 170)" fill-opacity="0.65"/><path d="M148,24L152,43L151,5Z" fill="rgb(233, 246, 228)" fill-opacity="0.42"/><path d="M116,125L113,143L104,112Z" fill="rgb(129, 49, 15)" fill-opacity="0.46"/><path d="M30,210L77,191L67,214Z" fill="rgb(242, 245, 241)" fill-opacity="0.48"/><path d="M149,146L170,31L170,331Z" fill="rgb(243, 247, 243)" fill-opacity="0.73"/><path d="M168,149L128,138L126,149Z" fill="rgb(233, 237, 230)" fill-opacity="0.64"/><path d="M69,95L37,85L70,116Z" fill="rgb(250, 244, 235)" fill-opacity="0.59"/><path d="M70,48L58,103L87,61Z" fill="rgb(152, 93, 67)" fill-opacity="0.48"/><path d="M109,194L118,213L69,181Z" fill="rgb(120, 121, 115)" fill-opacity="0.32"/><path d="M150,238L142,243L148,295Z" fill="rgb(40, 6, 3)" fill-opacity="0.45"/><path d="M122,132L90,156L77,145Z" fill="rgb(115, 66, 43)" fill-opacity="0.44"/><path d="M102,33L142,70L83,41Z" fill="rgb(253, 253, 252)" fill-opacity="0.75"/><path d="M142,124L150,142L149,25Z" fill="rgb(112, 85, 84)" fill-opacity="0.83"/><path d="M122,132L107,190L143,186Z" fill="rgb(255, 255, 254)" fill-opacity="0.64"/><path d="M151,232L134,229L149,240Z" fill="rgb(239, 246, 237)" fill-opacity="0.66"/><path d="M24,235L54,264L53,194Z" fill="rgb(254, 255, 250)" fill-opacity="0.54"/><path d="M29,177L74,187L36,111Z" fill="rgb(255, 255, 255)" fill-opacity="0.36"/><path d="M101,94L85,104L96,89Z" fill="rgb(219, 197, 155)" fill-opacity="0.47"/><path d="M58,189L46,199L64,190Z" fill="rgb(131, 131, 127)" fill-opacity="0.48"/><path d="M79,211L94,213L78,218Z" fill="rgb(3, 0, 2)" fill-opacity="0.44"/><path d="M106,220L102,209L84,208Z" fill="rgb(147, 144, 137)" fill-opacity="0.71"/><path d="M91,151L98,142L71,151Z" fill="rgb(55, 29, 23)" fill-opacity="0.56"/><path d="M161,132L160,11L388,-146Z" fill="rgb(248, 253, 249)" fill-opacity="0.59"/><path d="M116,249L99,251L111,267Z" fill="rgb(115, 60, 30)" fill-opacity="0.45"/><path d="M23,225L23,83L-148,184Z" fill="rgb(232, 235, 228)" fill-opacity="0.79"/><path d="M73,223L67,211L49,263Z" fill="rgb(123, 68, 45)" fill-opacity="0.56"/><path d="M97,162L110,176L104,155Z" fill="rgb(205, 212, 213)" fill-opacity="0.55"/><path d="M61,130L35,58L52,198Z" fill="rgb(250, 251, 249)" fill-opacity="0.80"/><path d="M139,249L116,251L135,221Z" fill="rgb(249, 250, 247)" fill-opacity="0.63"/><path d="M22,258L34,236L21,240Z" fill="rgb(75, 35, 25)" fill-opacity="0.43"/><path d="M93,188L102,233L89,207Z" fill="rgb(192, 191, 184)" fill-opacity="0.57"/><path d="M94,194L66,228L93,178Z" fill="rgb(118, 111, 102)" fill-opacity="0.63"/><path d="M35,-9L25,1L24,37Z" fill="rgb(27, 5, 9)" fill-opacity="0.49"/><path d="M115,96L107,52L106,78Z" fill="rgb(192, 177, 174)" fill-opacity="0.58"/><path d="M69,234L52,259L67,272Z" fill="rgb(100, 47, 26)" fill-opacity="0.53"/><path d="M96,220L108,248L97,233Z" fill="rgb(114, 78, 58)" fill-opacity="0.55"/><path d="M11,208L21,253L24,230Z" fill="rgb(221, 221, 207)" fill-opacity="0.53"/><path d="M-15,148L13,135L33,147Z" fill="rgb(224, 227, 218)" fill-opacity="0.81"/><path d="M112,174L120,184L67,175Z" fill="rgb(184, 182, 174)" fill-opacity="0.67"/><path d="M31,214L39,191L41,234Z" fill="rgb(255, 255, 252)" fill-opacity="0.65"/><path d="M108,110L138,164L136,30Z" fill="rgb(254, 254, 252)" fill-opacity="0.70"/><path d="M64,55L76,41L88,46Z" fill="rgb(1, 4, 27)" fill-opacity="0.37"/><path d="M74,233L71,213L97,229Z" fill="rgb(255, 255, 255)" fill-opacity="0.46"/><path d="M100,137L125,130L95,161Z" fill="rgb(208, 159, 133)" fill-opacity="0.48"/><path d="M71,158L77,152L64,148Z" fill="rgb(240, 249, 244)" fill-opacity="0.49"/><path d="M90,91L78,76L96,52Z" fill="rgb(12, 1, 5)" fill-opacity="0.57"/><path d="M65,87L83,89L64,71Z" fill="rgb(111, 78, 67)" fill-opacity="0.61"/><path d="M69,190L81,199L77,207Z" fill="rgb(213, 225, 223)" fill-opacity="0.55"/><path d="M92,191L98,199L101,179Z" fill="rgb(234, 242, 238)" fill-opacity="0.48"/><path d="M139,32L136,13L139,6Z" fill="rgb(120, 115, 94)" fill-opacity="0.44"/><path d="M29,52L31,-11L38,35Z" fill="rgb(171, 163, 140)" fill-opacity="0.51"/><path d="M47,-7L132,26L138,0Z" fill="rgb(253, 253, 251)" fill-opacity="0.85"/><path d="M73,171L80,157L60,158Z" fill="rgb(122, 121, 117)" fill-opacity="0.52"/><path d="M94,84L111,133L87,136Z" fill="rgb(247, 231, 198)" fill-opacity="0.28"/><path d="M104,226L106,216L98,205Z" fill="rgb(123, 115, 104)" fill-opacity="0.51"/><path d="M22,198L27,229L29,194Z" fill="rgb(110, 50, 37)" fill-opacity="0.51"/><path d="M150,127L150,195L152,250Z" fill="rgb(233, 241, 234)" fill-opacity="0.78"/><path d="M25,238L5,224L46,238Z" fill="rgb(210, 209, 191)" fill-opacity="0.66"/><path d="M72,112L66,123L72,131Z" fill="rgb(226, 192, 150)" fill-opacity="0.54"/><path d="M58,115L77,136L62,146Z" fill="rgb(159, 143, 127)" fill-opacity="0.66"/><path d="M84,83L76,145L69,84Z" fill="rgb(165, 89, 44)" fill-opacity="0.42"/><path d="M75,189L101,194L78,182Z" fill="rgb(126, 114, 97)" fill-opacity="0.53"/><path d="M35,39L28,62L33,76Z" fill="rgb(188, 182, 158)" fill-opacity="0.54"/><path d="M150,160L150,192L143,149Z" fill="rgb(92, 46, 42)" fill-opacity="0.46"/><path d="M84,196L83,207L90,203Z" fill="rgb(97, 87, 72)" fill-opacity="0.60"/><path d="M23,35L30,50L29,-22Z" fill="rgb(59, 34, 35)" fill-opacity="0.50"/><path d="M146,237L157,205L173,242Z" fill="rgb(227, 231, 223)" fill-opacity="0.51"/><path d="M56,182L56,200L61,183Z" fill="rgb(42, 43, 42)" fill-opacity="0.54"/><path d="M114,144L150,143L153,150Z" fill="rgb(219, 222, 214)" fill-opacity="0.74"/><path d="M94,143L93,153L81,152Z" fill="rgb(53, 23, 15)" fill-opacity="0.63"/><path d="M82,44L91,88L92,43Z" fill="rgb(0, 0, 5)" fill-opacity="0.43"/></svg>
