<svg xmlns="http://www.w3.org/2000/svg" viewBox="0 0 256 170.66666666666666" clip-path="url(#clip)"><defs><clipPath id="clip" clipPathUnits="objectBoundingBox"><rect x="0" y="0" width="256" height="170.66666666666666"/></clipPath></defs><rect x="0" y="0" width="256" height="170.66666666666666" fill="rgb(159, 153, 148)"/><path d="M206,-47L202,56L111,51Z" fill="rgb(18, 14, 4)" fill-opacity="0.74"/><path d="M77,-46L132,32L54,59Z" fill="rgb(16, 19, 13)" fill-opacity="0.87"/><path d="M94,142L41,192L68,35Z" fill="rgb(96, 72, 51)" fill-opacity="0.77"/><path d="M214,-52L216,179L397,136Z" fill="rgb(235, 236, 240)" fill-opacity="0.87"/><path d="M-45,120L14,62L38,-3Z" fill="rgb(39, 31, 27)" fill-opacity="0.66"/><path d="M60,20L57,125L6,153Z" fill="rgb(254, 250, 247)" fill-opacity="0.42"/><path d="M151,49L77,76L74,46Z" fill="rgb(184, 152, 118)" fill-opacity="0.69"/><path d="M103,133L113,136L97,201Z" fill="rgb(13, 32, 34)" fill-opacity="0.55"/><path d="M157,0L106,-7L127,62Z" fill="rgb(168, 99, 53)" fill-opacity="0.66"/><path d="M68,-13L45,30L43,2Z" fill="rgb(249, 249, 251)" fill-opacity="0.58"/><path d="M145,60L164,-51L180,66Z" fill="rgb(3, 12, 10)" fill-opacity="0.63"/><path d="M12,36L41,-13L43,17Z" fill="rgb(62, 53, 47)" fill-opacity="0.48"/><path d="M121,167L157,146L169,184Z" fill="rgb(223, 234, 245)" fill-opacity="0.50"/><path d="M230,259L203,47L174,50Z" fill="rgb(183, 110, 55)" fill-opacity="0.52"/><path d="M156,111L200,133L174,160Z" fill="rgb(199, 204, 212)" fill-opacity="0.71"/><path d="M135,51L129,-18L103,46Z" fill="rgb(89, 54, 28)" fill-opacity="0.47"/><path d="M215,125L203,53L310,55Z" fill="rgb(239, 239, 242)" fill-opacity="0.65"/><path d="M71,35L65,6L45,64Z" fill="rgb(74, 82, 82)" fill-opacity="0.54"/><path d="M82,96L89,113L65,130Z" fill="rgb(205, 204, 202)" fill-opacity="0.44"/><path d="M74,73L186,106L181,66Z" fill="rgb(243, 204, 164)" fill-opacity="0.48"/><path d="M239,-36L194,4L229,26Z" fill="rgb(216, 209, 203)" fill-opacity="0.37"/><path d="M130,116L176,137L158,109Z" fill="rgb(243, 249, 254)" fill-opacity="0.39"/><path d="M47,111L46,31L60,80Z" fill="rgb(255, 255, 255)" fill-opacity="0.52"/><path d="M210,50L184,57L201,15Z" fill="rgb(93, 80, 72)" fill-opacity="0.73"/><path d="M154,124L169,179L169,141Z" fill="rgb(43, 66, 80)" fill-opacity="0.55"/><path d="M135,-16L134,37L154,11Z" fill="rgb(248, 174, 123)" fill-opacity="0.46"/><path d="M155,140L167,135L146,124Z" fill="rgb(38, 56, 60)" fill-opacity="0.52"/><path d="M86,140L86,174L103,177Z" fill="rgb(54, 70, 76)" fill-opacity="0.63"/><path d="M34,37L43,56L46,22Z" fill="rgb(62, 57, 47)" fill-opacity="0.46"/><path d="M28,162L48,115L32,172Z" fill="rgb(255, 255, 255)" fill-opacity="0.54"/><path d="M177,179L202,136L207,206Z" fill="rgb(124, 83, 56)" fill-opacity="0.66"/><path d="M185,61L202,123L186,100Z" fill="rgb(93, 42, 7)" fill-opacity="0.44"/><path d="M208,149L209,99L237,173Z" fill="rgb(200, 163, 133)" fill-opacity="0.43"/><path d="M122,29L53,-71L80,47Z" fill="rgb(0, 8, 9)" fill-opacity="0.82"/><path d="M-6,183L9,164L28,107Z" fill="rgb(238, 238, 240)" fill-opacity="0.68"/><path d="M235,20L251,56L276,67Z" fill="rgb(124, 108, 84)" fill-opacity="0.37"/><path d="M249,37L222,0L232,27Z" fill="rgb(168, 160, 148)" fill-opacity="0.51"/><path d="M268,151L237,116L253,150Z" fill="rgb(152, 144, 133)" fill-opacity="0.64"/><path d="M74,133L103,109L100,94Z" fill="rgb(81, 97, 102)" fill-opacity="0.56"/><path d="M103,129L144,111L119,135Z" fill="rgb(205, 217, 225)" fill-opacity="0.46"/><path d="M82,156L59,152L72,198Z" fill="rgb(137, 115, 103)" fill-opacity="0.78"/><path d="M16,157L35,185L5,171Z" fill="rgb(86, 86, 76)" fill-opacity="0.43"/><path d="M5,179L47,113L43,77Z" fill="rgb(151, 144, 135)" fill-opacity="0.63"/><path d="M68,107L75,66L85,93Z" fill="rgb(61, 33, 3)" fill-opacity="0.55"/><path d="M40,60L36,47L69,54Z" fill="rgb(130, 122, 113)" fill-opacity="0.54"/><path d="M47,152L41,127L59,73Z" fill="rgb(249, 242, 239)" fill-opacity="0.60"/><path d="M166,-19L134,51L194,17Z" fill="rgb(0, 5, 8)" fill-opacity="0.44"/><path d="M81,141L107,123L101,159Z" fill="rgb(164, 189, 204)" fill-opacity="0.39"/><path d="M45,183L44,137L50,178Z" fill="rgb(217, 207, 198)" fill-opacity="0.73"/><path d="M175,164L155,154L140,169Z" fill="rgb(207, 212, 220)" fill-opacity="0.66"/><path d="M92,90L126,48L140,99Z" fill="rgb(211, 182, 152)" fill-opacity="0.73"/><path d="M107,176L95,143L108,139Z" fill="rgb(55, 66, 63)" fill-opacity="0.46"/><path d="M41,66L54,62L35,91Z" fill="rgb(251, 249, 252)" fill-opacity="0.55"/><path d="M190,48L206,105L207,54Z" fill="rgb(222, 168, 128)" fill-opacity="0.45"/><path d="M43,70L49,124L63,60Z" fill="rgb(244, 240, 240)" fill-opacity="0.69"/><path d="M126,97L138,107L174,97Z" fill="rgb(119, 124, 125)" fill-opacity="0.84"/><path d="M229,101L257,145L206,36Z" fill="rgb(169, 157, 145)" fill-opacity="0.45"/><path d="M166,138L165,126L175,120Z" fill="rgb(255, 255, 255)" fill-opacity="0.51"/><path d="M63,5L49,45L46,-3Z" fill="rgb(213, 211, 210)" fill-opacity="0.45"/><path d="M150,155L149,125L129,127Z" fill="rgb(82, 97, 105)" fill-opacity="0.52"/><path d="M124,68L167,69L138,47Z" fill="rgb(203, 152, 102)" fill-opacity="0.38"/><path d="M47,151L55,106L88,150Z" fill="rgb(87, 67, 49)" fill-opacity="0.62"/><path d="M202,28L210,12L181,-15Z" fill="rgb(102, 90, 83)" fill-opacity="0.49"/><path d="M33,74L41,83L24,123Z" fill="rgb(243, 241, 242)" fill-opacity="0.49"/><path d="M189,73L183,77L184,87Z" fill="rgb(36, 15, 0)" fill-opacity="0.49"/><path d="M132,131L132,127L143,131Z" fill="rgb(4, 8, 11)" fill-opacity="0.56"/><path d="M13,50L-3,93L39,34Z" fill="rgb(170, 157, 151)" fill-opacity="0.62"/><path d="M80,121L91,140L89,150Z" fill="rgb(12, 38, 48)" fill-opacity="0.51"/><path d="M161,44L168,69L185,48Z" fill="rgb(74, 66, 53)" fill-opacity="0.56"/><path d="M57,18L113,-53L66,63Z" fill="rgb(9, 31, 34)" fill-opacity="0.38"/><path d="M277,-53L230,7L268,64Z" fill="rgb(247, 249, 255)" fill-opacity="0.79"/><path d="M111,140L104,145L110,127Z" fill="rgb(9, 21, 25)" fill-opacity="0.45"/><path d="M99,140L85,120L96,158Z" fill="rgb(211, 224, 237)" fill-opacity="0.39"/><path d="M123,48L91,42L76,60Z" fill="rgb(153, 132, 107)" fill-opacity="0.55"/><path d="M174,93L187,94L184,102Z" fill="rgb(250, 248, 254)" fill-opacity="0.44"/><path d="M181,97L170,107L178,132Z" fill="rgb(100, 104, 108)" fill-opacity="0.48"/><path d="M71,160L54,211L70,132Z" fill="rgb(162, 142, 126)" fill-opacity="0.60"/><path d="M155,136L158,152L142,129Z" fill="rgb(194, 205, 216)" fill-opacity="0.54"/><path d="M89,134L97,120L97,133Z" fill="rgb(36, 57, 62)" fill-opacity="0.48"/><path d="M196,109L198,155L204,145Z" fill="rgb(102, 68, 43)" fill-opacity="0.60"/><path d="M167,164L155,183L177,178Z" fill="rgb(0, 12, 32)" fill-opacity="0.50"/><path d="M31,25L-62,111L10,60Z" fill="rgb(44, 34, 31)" fill-opacity="0.46"/><path d="M148,130L136,140L146,137Z" fill="rgb(244, 241, 243)" fill-opacity="0.48"/><path d="M124,162L119,151L131,147Z" fill="rgb(198, 211, 218)" fill-opacity="0.55"/><path d="M89,72L89,48L166,70Z" fill="rgb(204, 178, 150)" fill-opacity="0.60"/><path d="M81,148L72,163L80,162Z" fill="rgb(24, 53, 59)" fill-opacity="0.49"/><path d="M155,6L149,20L141,-76Z" fill="rgb(221, 153, 94)" fill-opacity="0.52"/><path d="M68,156L90,135L83,113Z" fill="rgb(45, 70, 77)" fill-opacity="0.53"/><path d="M134,140L126,113L128,154Z" fill="rgb(205, 214, 223)" fill-opacity="0.53"/><path d="M210,48L208,-5L221,44Z" fill="rgb(190, 187, 186)" fill-opacity="0.71"/><path d="M127,114L121,105L96,112Z" fill="rgb(186, 196, 203)" fill-opacity="0.56"/><path d="M128,153L127,159L126,136Z" fill="rgb(62, 80, 86)" fill-opacity="0.50"/><path d="M85,156L84,149L77,172Z" fill="rgb(243, 248, 252)" fill-opacity="0.39"/><path d="M175,139L178,141L180,99Z" fill="rgb(112, 118, 120)" fill-opacity="0.57"/><path d="M198,110L178,135L196,147Z" fill="rgb(201, 212, 223)" fill-opacity="0.41"/><path d="M113,162L113,169L137,190Z" fill="rgb(235, 240, 241)" fill-opacity="0.55"/><path d="M44,-2L21,42L33,2Z" fill="rgb(76, 66, 61)" fill-opacity="0.77"/><path d="M206,91L212,63L212,106Z" fill="rgb(255, 252, 254)" fill-opacity="0.38"/><path d="M217,27L235,43L224,9Z" fill="rgb(255, 255, 255)" fill-opacity="0.47"/><path d="M182,155L170,164L178,169Z" fill="rgb(223, 231, 247)" fill-opacity="0.42"/></svg>
