<svg xmlns="http://www.w3.org/2000/svg" viewBox="0 0 256 170.73548387096776" clip-path="url(#clip)"><defs><clipPath id="clip" clipPathUnits="objectBoundingBox"><rect x="0" y="0" width="256" height="170.73548387096776"/></clipPath></defs><rect x="0" y="0" width="256" height="170.73548387096776" fill="rgb(144, 159, 171)"/><path d="M81,201L141,170L103,139Z" fill="rgb(83, 46, 24)" fill-opacity="0.62"/><path d="M117,30L96,65L132,56Z" fill="rgb(34, 3, 0)" fill-opacity="0.64"/><path d="M211,131L246,147L209,199Z" fill="rgb(8, 7, 9)" fill-opacity="0.45"/><path d="M76,158L104,174L41,174Z" fill="rgb(43, 16, 0)" fill-opacity="0.54"/><path d="M336,114L166,-131L126,147Z" fill="rgb(211, 222, 231)" fill-opacity="0.90"/><path d="M23,158L-29,365L1,124Z" fill="rgb(96, 76, 55)" fill-opacity="0.78"/><path d="M175,67L157,222L185,158Z" fill="rgb(69, 97, 119)" fill-opacity="0.82"/><path d="M244,173L238,98L439,155Z" fill="rgb(220, 225, 228)" fill-opacity="1.00"/><path d="M113,150L18,164L54,13Z" fill="rgb(194, 222, 245)" fill-opacity="0.45"/><path d="M113,126L144,54L100,64Z" fill="rgb(147, 61, 4)" fill-opacity="0.36"/><path d="M210,173L181,147L205,89Z" fill="rgb(227, 232, 234)" fill-opacity="0.73"/><path d="M136,63L127,67L123,53Z" fill="rgb(40, 7, 0)" fill-opacity="0.52"/><path d="M105,-7L-128,5L-2,92Z" fill="rgb(80, 137, 191)" fill-opacity="0.61"/><path d="M159,188L144,146L135,171Z" fill="rgb(49, 60, 65)" fill-opacity="0.61"/><path d="M79,159L74,286L64,156Z" fill="rgb(44, 39, 36)" fill-opacity="0.67"/><path d="M142,139L163,186L165,141Z" fill="rgb(244, 242, 240)" fill-opacity="0.69"/><path d="M102,159L100,104L94,123Z" fill="rgb(101, 85, 71)" fill-opacity="0.52"/><path d="M57,182L54,154L45,157Z" fill="rgb(111, 86, 62)" fill-opacity="0.48"/><path d="M116,61L100,54L115,35Z" fill="rgb(0, 4, 5)" fill-opacity="0.74"/><path d="M125,150L120,136L75,189Z" fill="rgb(83, 40, 17)" fill-opacity="0.55"/><path d="M230,123L200,194L245,128Z" fill="rgb(69, 77, 85)" fill-opacity="0.52"/><path d="M117,174L120,153L145,156Z" fill="rgb(194, 212, 216)" fill-opacity="0.32"/><path d="M40,-20L202,4L113,39Z" fill="rgb(164, 196, 226)" fill-opacity="0.61"/><path d="M99,92L87,84L106,74Z" fill="rgb(103, 22, 0)" fill-opacity="0.52"/><path d="M39,139L46,44L-40,119Z" fill="rgb(154, 189, 218)" fill-opacity="0.58"/><path d="M137,-44L180,81L126,54Z" fill="rgb(190, 207, 224)" fill-opacity="0.56"/><path d="M49,141L63,192L66,128Z" fill="rgb(215, 213, 212)" fill-opacity="0.52"/><path d="M99,-49L15,143L101,74Z" fill="rgb(149, 180, 208)" fill-opacity="0.86"/><path d="M22,160L2,163L-7,150Z" fill="rgb(15, 24, 31)" fill-opacity="0.51"/><path d="M90,170L55,103L102,150Z" fill="rgb(222, 225, 228)" fill-opacity="0.48"/><path d="M218,145L272,194L207,178Z" fill="rgb(72, 78, 84)" fill-opacity="0.73"/><path d="M127,71L126,79L199,59Z" fill="rgb(201, 211, 220)" fill-opacity="0.75"/><path d="M165,-55L241,132L349,51Z" fill="rgb(222, 230, 237)" fill-opacity="0.87"/><path d="M68,155L65,78L107,96Z" fill="rgb(184, 208, 227)" fill-opacity="0.55"/><path d="M14,57L42,74L57,59Z" fill="rgb(241, 227, 230)" fill-opacity="0.36"/><path d="M133,53L126,34L109,75Z" fill="rgb(196, 133, 88)" fill-opacity="0.49"/><path d="M19,148L52,162L23,186Z" fill="rgb(242, 213, 185)" fill-opacity="0.45"/><path d="M181,163L194,201L165,158Z" fill="rgb(43, 61, 73)" fill-opacity="0.50"/><path d="M3,154L5,132L21,137Z" fill="rgb(201, 139, 67)" fill-opacity="0.51"/><path d="M99,163L108,85L137,124Z" fill="rgb(146, 143, 142)" fill-opacity="0.43"/><path d="M105,64L126,57L119,79Z" fill="rgb(246, 193, 151)" fill-opacity="0.45"/><path d="M182,161L181,141L215,177Z" fill="rgb(183, 190, 191)" fill-opacity="0.62"/><path d="M241,151L250,215L231,155Z" fill="rgb(89, 92, 95)" fill-opacity="0.81"/><path d="M166,143L153,142L150,171Z" fill="rgb(230, 231, 233)" fill-opacity="0.58"/><path d="M5,136L4,152L-6,125Z" fill="rgb(4, 0, 0)" fill-opacity="0.46"/><path d="M130,92L111,98L116,75Z" fill="rgb(132, 75, 39)" fill-opacity="0.53"/><path d="M71,118L127,145L167,151Z" fill="rgb(243, 235, 228)" fill-opacity="0.33"/><path d="M135,70L92,87L110,87Z" fill="rgb(223, 197, 166)" fill-opacity="0.34"/><path d="M99,126L115,138L108,117Z" fill="rgb(221, 212, 205)" fill-opacity="0.57"/><path d="M81,163L68,160L97,156Z" fill="rgb(214, 194, 181)" fill-opacity="0.43"/><path d="M111,117L125,108L95,101Z" fill="rgb(67, 97, 129)" fill-opacity="0.52"/><path d="M91,46L135,30L139,-12Z" fill="rgb(162, 191, 217)" fill-opacity="0.58"/><path d="M9,154L21,159L20,165Z" fill="rgb(25, 26, 26)" fill-opacity="0.54"/><path d="M116,71L118,58L125,73Z" fill="rgb(130, 75, 35)" fill-opacity="0.50"/><path d="M131,125L130,119L126,139Z" fill="rgb(17, 15, 9)" fill-opacity="0.50"/><path d="M100,74L119,81L102,66Z" fill="rgb(78, 25, 0)" fill-opacity="0.47"/><path d="M25,146L35,165L40,152Z" fill="rgb(158, 151, 147)" fill-opacity="0.69"/><path d="M124,59L130,74L135,54Z" fill="rgb(47, 37, 34)" fill-opacity="0.53"/><path d="M10,61L68,56L126,-57Z" fill="rgb(122, 159, 194)" fill-opacity="0.69"/><path d="M210,180L199,171L207,93Z" fill="rgb(226, 228, 230)" fill-opacity="0.65"/><path d="M128,39L99,65L111,37Z" fill="rgb(0, 0, 0)" fill-opacity="0.42"/><path d="M94,174L95,156L111,174Z" fill="rgb(0, 0, 0)" fill-opacity="0.44"/><path d="M120,115L121,146L131,110Z" fill="rgb(204, 195, 185)" fill-opacity="0.44"/><path d="M132,54L133,63L128,50Z" fill="rgb(80, 59, 53)" fill-opacity="0.60"/><path d="M110,195L101,168L121,152Z" fill="rgb(103, 38, 7)" fill-opacity="0.50"/><path d="M5,160L16,167L-45,222Z" fill="rgb(149, 144, 144)" fill-opacity="0.45"/><path d="M41,4L2,47L-24,-40Z" fill="rgb(37, 91, 140)" fill-opacity="0.30"/><path d="M94,167L66,165L95,203Z" fill="rgb(44, 35, 22)" fill-opacity="0.55"/><path d="M236,135L216,132L243,160Z" fill="rgb(87, 94, 101)" fill-opacity="0.68"/><path d="M21,168L18,202L18,146Z" fill="rgb(40, 34, 29)" fill-opacity="0.64"/><path d="M135,59L165,119L131,11Z" fill="rgb(192, 210, 226)" fill-opacity="0.68"/><path d="M151,159L146,180L140,146Z" fill="rgb(36, 53, 63)" fill-opacity="0.44"/><path d="M132,82L128,83L139,93Z" fill="rgb(114, 93, 78)" fill-opacity="0.48"/><path d="M186,163L186,158L182,137Z" fill="rgb(43, 63, 75)" fill-opacity="0.58"/><path d="M117,108L95,121L111,120Z" fill="rgb(49, 71, 96)" fill-opacity="0.41"/><path d="M49,163L25,156L49,144Z" fill="rgb(201, 195, 191)" fill-opacity="0.57"/><path d="M138,57L192,24L118,25Z" fill="rgb(181, 202, 222)" fill-opacity="0.50"/><path d="M5,142L-2,127L-1,148Z" fill="rgb(5, 0, 0)" fill-opacity="0.49"/><path d="M116,60L129,51L118,42Z" fill="rgb(130, 66, 19)" fill-opacity="0.53"/><path d="M55,158L55,170L46,179Z" fill="rgb(22, 8, 0)" fill-opacity="0.45"/><path d="M107,160L29,94L14,146Z" fill="rgb(198, 209, 215)" fill-opacity="0.32"/><path d="M138,162L143,160L141,158Z" fill="rgb(177, 198, 203)" fill-opacity="0.51"/><path d="M124,134L128,126L129,133Z" fill="rgb(45, 27, 14)" fill-opacity="0.52"/><path d="M99,90L35,150L112,95Z" fill="rgb(179, 199, 216)" fill-opacity="0.74"/><path d="M26,153L21,144L53,153Z" fill="rgb(151, 150, 150)" fill-opacity="0.54"/><path d="M63,171L70,152L70,169Z" fill="rgb(79, 77, 80)" fill-opacity="0.50"/><path d="M121,95L107,107L122,105Z" fill="rgb(152, 177, 192)" fill-opacity="0.45"/><path d="M188,171L187,157L195,174Z" fill="rgb(223, 232, 234)" fill-opacity="0.46"/><path d="M104,91L85,88L97,77Z" fill="rgb(127, 77, 41)" fill-opacity="0.57"/><path d="M195,0L134,147L155,149Z" fill="rgb(209, 220, 229)" fill-opacity="0.76"/><path d="M6,155L-6,151L22,139Z" fill="rgb(165, 144, 122)" fill-opacity="0.51"/><path d="M124,164L143,164L109,186Z" fill="rgb(79, 88, 95)" fill-opacity="0.93"/><path d="M123,54L101,66L103,51Z" fill="rgb(10, 3, 0)" fill-opacity="0.52"/><path d="M2,148L-19,135L6,129Z" fill="rgb(27, 19, 4)" fill-opacity="0.56"/><path d="M101,154L97,136L125,137Z" fill="rgb(130, 110, 93)" fill-opacity="0.42"/><path d="M152,167L170,177L150,157Z" fill="rgb(233, 227, 220)" fill-opacity="0.55"/><path d="M194,158L191,158L192,168Z" fill="rgb(30, 43, 52)" fill-opacity="0.55"/><path d="M71,112L96,156L93,117Z" fill="rgb(201, 213, 223)" fill-opacity="0.59"/><path d="M108,66L120,57L125,66Z" fill="rgb(238, 208, 188)" fill-opacity="0.52"/><path d="M124,106L128,114L136,106Z" fill="rgb(205, 206, 207)" fill-opacity="0.61"/><path d="M103,56L104,45L90,34Z" fill="rgb(152, 185, 214)" fill-opacity="0.51"/></svg>
