<svg xmlns="http://www.w3.org/2000/svg" viewBox="0 0 170.52456286427977 256" clip-path="url(#clip)"><defs><clipPath id="clip" clipPathUnits="objectBoundingBox"><rect x="0" y="0" width="170.52456286427977" height="256"/></clipPath></defs><rect x="0" y="0" width="170.52456286427977" height="256" fill="rgb(144, 152, 160)"/><path d="M55,202L205,150L174,215Z" fill="rgb(33, 25, 13)" fill-opacity="0.77"/><path d="M90,80L61,46L40,85Z" fill="rgb(38, 15, 0)" fill-opacity="0.73"/><path d="M-65,164L104,148L54,186Z" fill="rgb(56, 28, 9)" fill-opacity="0.55"/><path d="M41,208L41,150L56,195Z" fill="rgb(63, 21, 0)" fill-opacity="0.53"/><path d="M92,194L134,126L141,174Z" fill="rgb(41, 53, 59)" fill-opacity="0.52"/><path d="M37,170L52,14L-85,95Z" fill="rgb(135, 160, 184)" fill-opacity="0.96"/><path d="M87,249L78,246L85,184Z" fill="rgb(70, 23, 0)" fill-opacity="0.56"/><path d="M54,175L42,187L35,255Z" fill="rgb(72, 19, 0)" fill-opacity="0.52"/><path d="M73,93L126,73L115,176Z" fill="rgb(211, 226, 239)" fill-opacity="0.53"/><path d="M114,177L81,220L74,147Z" fill="rgb(106, 83, 65)" fill-opacity="0.73"/><path d="M130,11L485,158L144,169Z" fill="rgb(181, 200, 216)" fill-opacity="0.77"/><path d="M10,247L68,241L-58,236Z" fill="rgb(47, 42, 37)" fill-opacity="0.69"/><path d="M56,178L-8,178L25,164Z" fill="rgb(16, 13, 7)" fill-opacity="0.50"/><path d="M152,214L125,172L159,165Z" fill="rgb(15, 14, 10)" fill-opacity="0.48"/><path d="M98,142L76,138L90,167Z" fill="rgb(194, 200, 202)" fill-opacity="0.59"/><path d="M122,121L137,151L134,53Z" fill="rgb(26, 52, 76)" fill-opacity="0.55"/><path d="M65,172L67,220L47,191Z" fill="rgb(202, 171, 137)" fill-opacity="0.50"/><path d="M67,75L103,63L66,57Z" fill="rgb(255, 221, 183)" fill-opacity="0.29"/><path d="M108,78L111,68L58,91Z" fill="rgb(155, 73, 8)" fill-opacity="0.50"/><path d="M98,195L83,134L87,196Z" fill="rgb(171, 159, 148)" fill-opacity="0.70"/><path d="M41,224L56,177L87,202Z" fill="rgb(175, 150, 126)" fill-opacity="0.52"/><path d="M43,65L48,94L86,71Z" fill="rgb(27, 2, 0)" fill-opacity="0.41"/><path d="M26,62L263,-3L-114,-3Z" fill="rgb(119, 150, 186)" fill-opacity="0.72"/><path d="M32,141L54,93L34,158Z" fill="rgb(140, 61, 8)" fill-opacity="0.46"/><path d="M47,77L58,90L46,114Z" fill="rgb(180, 140, 101)" fill-opacity="0.55"/><path d="M37,163L48,160L40,133Z" fill="rgb(190, 203, 211)" fill-opacity="0.47"/><path d="M78,310L87,206L272,233Z" fill="rgb(210, 171, 131)" fill-opacity="0.38"/><path d="M84,-14L196,6L111,81Z" fill="rgb(149, 173, 198)" fill-opacity="0.75"/><path d="M44,189L-10,188L38,182Z" fill="rgb(255, 255, 226)" fill-opacity="0.49"/><path d="M73,237L93,246L62,241Z" fill="rgb(29, 26, 24)" fill-opacity="0.44"/><path d="M100,155L114,201L86,137Z" fill="rgb(50, 58, 60)" fill-opacity="0.45"/><path d="M33,196L11,198L16,180Z" fill="rgb(255, 208, 158)" fill-opacity="0.36"/><path d="M119,133L127,176L135,105Z" fill="rgb(40, 66, 89)" fill-opacity="0.46"/><path d="M56,96L54,88L49,96Z" fill="rgb(250, 238, 223)" fill-opacity="0.46"/><path d="M83,166L89,233L68,139Z" fill="rgb(69, 25, 1)" fill-opacity="0.50"/><path d="M74,66L96,73L101,57Z" fill="rgb(209, 220, 238)" fill-opacity="0.51"/><path d="M130,59L105,59L122,106Z" fill="rgb(202, 212, 226)" fill-opacity="0.48"/><path d="M151,170L158,157L146,150Z" fill="rgb(98, 93, 80)" fill-opacity="0.43"/><path d="M35,138L-37,186L43,81Z" fill="rgb(196, 208, 213)" fill-opacity="0.40"/><path d="M51,188L25,341L-21,192Z" fill="rgb(169, 66, 0)" fill-opacity="0.15"/><path d="M38,166L28,134L19,164Z" fill="rgb(193, 185, 178)" fill-opacity="0.54"/><path d="M33,176L75,167L58,149Z" fill="rgb(56, 27, 12)" fill-opacity="0.47"/><path d="M51,88L88,120L84,78Z" fill="rgb(165, 142, 120)" fill-opacity="0.54"/><path d="M38,237L45,235L38,218Z" fill="rgb(34, 9, 0)" fill-opacity="0.55"/><path d="M114,179L110,177L110,189Z" fill="rgb(152, 149, 151)" fill-opacity="0.49"/><path d="M43,237L45,219L96,240Z" fill="rgb(199, 166, 138)" fill-opacity="0.41"/><path d="M9,173L6,160L39,179Z" fill="rgb(37, 36, 34)" fill-opacity="0.60"/><path d="M84,86L115,73L70,79Z" fill="rgb(123, 67, 26)" fill-opacity="0.46"/><path d="M55,182L52,193L64,183Z" fill="rgb(232, 224, 215)" fill-opacity="0.65"/><path d="M33,185L27,172L31,153Z" fill="rgb(178, 155, 131)" fill-opacity="0.51"/><path d="M45,237L44,214L49,232Z" fill="rgb(240, 224, 215)" fill-opacity="0.48"/><path d="M65,85L61,50L41,74Z" fill="rgb(0, 4, 8)" fill-opacity="0.54"/><path d="M99,209L111,206L88,206Z" fill="rgb(36, 31, 2)" fill-opacity="0.50"/><path d="M56,142L51,131L51,151Z" fill="rgb(235, 225, 214)" fill-opacity="0.51"/><path d="M148,147L161,73L185,185Z" fill="rgb(221, 223, 222)" fill-opacity="0.37"/><path d="M118,164L103,171L103,116Z" fill="rgb(200, 203, 205)" fill-opacity="0.66"/><path d="M20,239L39,238L32,245Z" fill="rgb(5, 19, 29)" fill-opacity="0.58"/><path d="M51,119L48,101L35,141Z" fill="rgb(119, 62, 19)" fill-opacity="0.42"/><path d="M140,172L136,152L100,180Z" fill="rgb(76, 86, 93)" fill-opacity="0.58"/><path d="M48,116L58,133L55,81Z" fill="rgb(219, 196, 172)" fill-opacity="0.36"/><path d="M74,53L67,52L69,90Z" fill="rgb(146, 84, 39)" fill-opacity="0.53"/><path d="M93,41L107,63L107,78Z" fill="rgb(170, 77, 5)" fill-opacity="0.48"/><path d="M108,77L84,89L126,94Z" fill="rgb(227, 225, 231)" fill-opacity="0.44"/><path d="M101,196L125,203L123,178Z" fill="rgb(11, 13, 14)" fill-opacity="0.54"/><path d="M86,-1L13,82L-30,-33Z" fill="rgb(77, 110, 153)" fill-opacity="0.23"/><path d="M61,196L78,193L71,181Z" fill="rgb(118, 96, 69)" fill-opacity="0.46"/><path d="M86,214L103,204L106,185Z" fill="rgb(105, 107, 91)" fill-opacity="0.48"/><path d="M40,160L36,172L50,175Z" fill="rgb(15, 15, 18)" fill-opacity="0.57"/><path d="M146,159L137,155L140,172Z" fill="rgb(169, 178, 177)" fill-opacity="0.55"/><path d="M125,207L173,212L194,181Z" fill="rgb(15, 13, 9)" fill-opacity="0.49"/><path d="M76,54L53,64L62,51Z" fill="rgb(11, 11, 13)" fill-opacity="0.55"/><path d="M70,115L74,183L62,123Z" fill="rgb(90, 85, 81)" fill-opacity="0.50"/><path d="M82,144L85,137L93,157Z" fill="rgb(231, 241, 245)" fill-opacity="0.42"/><path d="M66,100L40,137L57,125Z" fill="rgb(198, 191, 182)" fill-opacity="0.50"/><path d="M80,228L87,211L82,241Z" fill="rgb(42, 14, 3)" fill-opacity="0.51"/><path d="M104,182L69,159L113,171Z" fill="rgb(82, 78, 74)" fill-opacity="0.48"/><path d="M23,258L55,236L115,256Z" fill="rgb(178, 144, 111)" fill-opacity="0.36"/><path d="M167,189L137,184L187,160Z" fill="rgb(25, 22, 20)" fill-opacity="0.50"/><path d="M109,166L82,118L121,134Z" fill="rgb(192, 203, 211)" fill-opacity="0.50"/><path d="M62,162L66,191L78,174Z" fill="rgb(132, 117, 100)" fill-opacity="0.57"/><path d="M43,188L-23,245L15,238Z" fill="rgb(165, 153, 135)" fill-opacity="0.51"/><path d="M80,214L70,196L79,193Z" fill="rgb(164, 162, 147)" fill-opacity="0.60"/><path d="M59,173L77,174L67,177Z" fill="rgb(61, 57, 53)" fill-opacity="0.48"/><path d="M57,179L44,176L58,136Z" fill="rgb(96, 50, 25)" fill-opacity="0.40"/><path d="M65,146L53,152L62,141Z" fill="rgb(227, 221, 213)" fill-opacity="0.47"/><path d="M35,189L31,177L44,184Z" fill="rgb(229, 215, 200)" fill-opacity="0.32"/><path d="M110,172L144,189L114,185Z" fill="rgb(74, 63, 58)" fill-opacity="0.60"/><path d="M18,240L2,240L39,210Z" fill="rgb(163, 154, 142)" fill-opacity="0.60"/><path d="M25,197L-13,183L18,185Z" fill="rgb(249, 230, 211)" fill-opacity="0.38"/><path d="M69,112L79,104L74,153Z" fill="rgb(194, 194, 193)" fill-opacity="0.61"/><path d="M104,187L102,152L101,206Z" fill="rgb(132, 152, 150)" fill-opacity="0.39"/><path d="M91,39L101,53L84,43Z" fill="rgb(170, 97, 59)" fill-opacity="0.53"/><path d="M62,44L92,73L96,51Z" fill="rgb(139, 182, 226)" fill-opacity="0.41"/><path d="M144,167L142,162L144,158Z" fill="rgb(42, 50, 56)" fill-opacity="0.50"/><path d="M101,37L84,-4L58,53Z" fill="rgb(145, 167, 194)" fill-opacity="0.43"/><path d="M72,150L69,148L87,139Z" fill="rgb(221, 221, 217)" fill-opacity="0.52"/><path d="M59,109L75,111L65,98Z" fill="rgb(120, 118, 115)" fill-opacity="0.50"/><path d="M135,68L124,98L131,60Z" fill="rgb(69, 88, 108)" fill-opacity="0.48"/><path d="M83,218L74,154L84,148Z" fill="rgb(74, 38, 19)" fill-opacity="0.63"/><path d="M86,200L103,206L89,198Z" fill="rgb(141, 124, 84)" fill-opacity="0.50"/></svg>
