<svg xmlns="http://www.w3.org/2000/svg" viewBox="0 0 256 144" clip-path="url(#clip)"><defs><clipPath id="clip" clipPathUnits="objectBoundingBox"><rect x="0" y="0" width="256" height="144"/></clipPath></defs><rect x="0" y="0" width="256" height="144" fill="rgb(119, 128, 171)"/><path d="M101,76L102,161L180,150Z" fill="rgb(22, 3, 17)" fill-opacity="0.48"/><path d="M0,80L33,135L-26,162Z" fill="rgb(31, 52, 71)" fill-opacity="0.64"/><path d="M-105,79L198,-182L201,82Z" fill="rgb(161, 167, 214)" fill-opacity="0.93"/><path d="M45,8L61,-8L57,17Z" fill="rgb(20, 39, 81)" fill-opacity="0.62"/><path d="M155,47L109,24L153,20Z" fill="rgb(34, 25, 38)" fill-opacity="0.65"/><path d="M253,91L220,139L314,147Z" fill="rgb(0, 26, 45)" fill-opacity="0.45"/><path d="M197,109L288,192L223,81Z" fill="rgb(56, 77, 106)" fill-opacity="0.63"/><path d="M118,16L140,28L110,42Z" fill="rgb(43, 38, 59)" fill-opacity="0.61"/><path d="M226,56L165,166L164,86Z" fill="rgb(217, 198, 246)" fill-opacity="0.43"/><path d="M169,71L134,91L154,134Z" fill="rgb(31, 15, 28)" fill-opacity="0.51"/><path d="M154,142L191,167L155,125Z" fill="rgb(177, 163, 219)" fill-opacity="0.51"/><path d="M105,76L129,92L149,82Z" fill="rgb(255, 206, 219)" fill-opacity="0.58"/><path d="M32,115L110,159L86,38Z" fill="rgb(207, 203, 255)" fill-opacity="0.51"/><path d="M50,100L21,52L51,57Z" fill="rgb(50, 82, 122)" fill-opacity="0.40"/><path d="M93,64L130,-6L54,-4Z" fill="rgb(201, 217, 255)" fill-opacity="0.48"/><path d="M183,46L207,63L204,34Z" fill="rgb(47, 73, 121)" fill-opacity="0.48"/><path d="M117,42L138,32L141,48Z" fill="rgb(255, 207, 225)" fill-opacity="0.62"/><path d="M255,-12L181,4L254,18Z" fill="rgb(161, 169, 228)" fill-opacity="0.58"/><path d="M122,30L110,26L116,49Z" fill="rgb(30, 26, 45)" fill-opacity="0.56"/><path d="M7,119L21,74L37,118Z" fill="rgb(94, 111, 157)" fill-opacity="0.79"/><path d="M123,47L128,92L151,44Z" fill="rgb(186, 122, 137)" fill-opacity="0.54"/><path d="M247,56L292,35L174,19Z" fill="rgb(169, 180, 228)" fill-opacity="0.45"/><path d="M150,68L162,134L164,103Z" fill="rgb(65, 47, 63)" fill-opacity="0.52"/><path d="M161,127L108,77L92,83Z" fill="rgb(77, 75, 111)" fill-opacity="0.68"/><path d="M245,48L258,75L249,95Z" fill="rgb(54, 80, 123)" fill-opacity="0.49"/><path d="M71,37L57,38L62,25Z" fill="rgb(11, 27, 74)" fill-opacity="0.56"/><path d="M238,56L193,47L226,65Z" fill="rgb(71, 97, 113)" fill-opacity="0.44"/><path d="M146,-13L161,79L209,82Z" fill="rgb(169, 178, 229)" fill-opacity="0.81"/><path d="M90,175L100,93L89,73Z" fill="rgb(236, 201, 224)" fill-opacity="0.69"/><path d="M10,22L2,44L-12,24Z" fill="rgb(46, 65, 130)" fill-opacity="0.51"/><path d="M120,38L133,93L113,84Z" fill="rgb(252, 191, 212)" fill-opacity="0.31"/><path d="M17,97L49,74L11,126Z" fill="rgb(162, 175, 245)" fill-opacity="0.36"/><path d="M141,105L134,190L154,137Z" fill="rgb(14, 7, 13)" fill-opacity="0.35"/><path d="M46,122L41,134L52,130Z" fill="rgb(18, 32, 64)" fill-opacity="0.55"/><path d="M98,84L170,190L100,152Z" fill="rgb(51, 38, 57)" fill-opacity="0.39"/><path d="M184,8L211,50L204,14Z" fill="rgb(159, 170, 227)" fill-opacity="0.52"/><path d="M27,76L15,87L25,97Z" fill="rgb(1, 13, 50)" fill-opacity="0.44"/><path d="M174,25L192,14L178,7Z" fill="rgb(51, 80, 129)" fill-opacity="0.45"/><path d="M39,39L114,38L78,117Z" fill="rgb(172, 183, 236)" fill-opacity="0.78"/><path d="M225,103L261,80L249,108Z" fill="rgb(117, 132, 183)" fill-opacity="0.58"/><path d="M145,48L153,43L145,19Z" fill="rgb(27, 26, 40)" fill-opacity="0.61"/><path d="M259,-21L61,10L139,21Z" fill="rgb(179, 189, 241)" fill-opacity="0.79"/><path d="M25,110L24,139L31,125Z" fill="rgb(51, 67, 88)" fill-opacity="0.50"/><path d="M102,127L106,121L106,158Z" fill="rgb(166, 160, 223)" fill-opacity="0.42"/><path d="M177,91L168,154L165,77Z" fill="rgb(255, 192, 195)" fill-opacity="0.33"/><path d="M37,144L92,185L79,106Z" fill="rgb(142, 152, 211)" fill-opacity="0.69"/><path d="M215,11L202,6L212,26Z" fill="rgb(39, 70, 115)" fill-opacity="0.42"/><path d="M267,160L249,129L234,149Z" fill="rgb(103, 116, 168)" fill-opacity="0.60"/><path d="M28,-43L63,48L22,40Z" fill="rgb(170, 182, 234)" fill-opacity="0.83"/><path d="M247,81L184,86L246,64Z" fill="rgb(139, 150, 202)" fill-opacity="0.62"/><path d="M21,45L7,39L17,59Z" fill="rgb(97, 121, 153)" fill-opacity="0.56"/><path d="M155,41L127,31L155,29Z" fill="rgb(27, 28, 44)" fill-opacity="0.48"/><path d="M215,-2L229,20L225,68Z" fill="rgb(161, 173, 222)" fill-opacity="0.44"/><path d="M15,116L-61,191L4,151Z" fill="rgb(9, 24, 26)" fill-opacity="0.31"/><path d="M48,78L39,91L51,89Z" fill="rgb(24, 34, 72)" fill-opacity="0.51"/><path d="M25,30L18,20L18,34Z" fill="rgb(35, 62, 108)" fill-opacity="0.41"/><path d="M-1,89L-4,53L21,81Z" fill="rgb(129, 145, 198)" fill-opacity="0.63"/><path d="M200,118L144,56L168,21Z" fill="rgb(167, 173, 225)" fill-opacity="0.84"/><path d="M230,149L260,120L228,124Z" fill="rgb(33, 46, 64)" fill-opacity="0.44"/><path d="M86,41L99,80L137,53Z" fill="rgb(192, 193, 242)" fill-opacity="0.55"/><path d="M162,107L163,131L170,84Z" fill="rgb(199, 149, 163)" fill-opacity="0.54"/><path d="M26,100L47,104L33,73Z" fill="rgb(149, 163, 223)" fill-opacity="0.60"/><path d="M166,82L150,73L145,100Z" fill="rgb(46, 43, 65)" fill-opacity="0.41"/><path d="M30,103L6,137L41,105Z" fill="rgb(78, 101, 130)" fill-opacity="0.62"/><path d="M181,111L232,137L174,176Z" fill="rgb(135, 145, 210)" fill-opacity="0.47"/><path d="M238,14L234,50L253,16Z" fill="rgb(157, 165, 212)" fill-opacity="0.61"/><path d="M233,49L236,28L224,21Z" fill="rgb(96, 115, 147)" fill-opacity="0.54"/><path d="M191,55L183,27L195,44Z" fill="rgb(117, 138, 182)" fill-opacity="0.48"/><path d="M29,74L33,61L-16,45Z" fill="rgb(170, 185, 242)" fill-opacity="0.49"/><path d="M117,48L143,38L126,32Z" fill="rgb(244, 210, 235)" fill-opacity="0.57"/><path d="M149,77L128,84L129,59Z" fill="rgb(163, 115, 134)" fill-opacity="0.59"/><path d="M228,105L236,99L230,95Z" fill="rgb(147, 153, 210)" fill-opacity="0.56"/><path d="M210,63L199,31L189,59Z" fill="rgb(64, 84, 125)" fill-opacity="0.37"/><path d="M61,-22L119,50L71,55Z" fill="rgb(180, 190, 241)" fill-opacity="0.87"/><path d="M14,116L19,97L7,116Z" fill="rgb(145, 155, 214)" fill-opacity="0.49"/><path d="M171,-24L150,21L169,70Z" fill="rgb(173, 182, 233)" fill-opacity="0.69"/><path d="M3,40L-11,37L2,22Z" fill="rgb(27, 42, 87)" fill-opacity="0.48"/><path d="M252,59L332,36L249,91Z" fill="rgb(41, 67, 98)" fill-opacity="0.35"/><path d="M225,127L238,93L245,120Z" fill="rgb(72, 94, 132)" fill-opacity="0.57"/><path d="M6,13L2,30L18,25Z" fill="rgb(116, 133, 189)" fill-opacity="0.50"/><path d="M228,135L220,117L246,131Z" fill="rgb(46, 59, 82)" fill-opacity="0.58"/><path d="M233,96L235,84L196,90Z" fill="rgb(68, 96, 123)" fill-opacity="0.47"/><path d="M38,107L28,142L63,108Z" fill="rgb(137, 150, 209)" fill-opacity="0.61"/><path d="M29,54L43,64L38,41Z" fill="rgb(97, 121, 156)" fill-opacity="0.52"/><path d="M225,70L215,57L166,98Z" fill="rgb(155, 163, 216)" fill-opacity="0.64"/><path d="M120,108L148,92L114,90Z" fill="rgb(93, 98, 147)" fill-opacity="0.58"/><path d="M16,98L-44,107L-6,137Z" fill="rgb(26, 32, 39)" fill-opacity="0.38"/><path d="M144,94L110,97L141,124Z" fill="rgb(87, 92, 137)" fill-opacity="0.45"/><path d="M130,46L136,55L126,62Z" fill="rgb(249, 202, 224)" fill-opacity="0.47"/><path d="M59,74L64,67L37,84Z" fill="rgb(92, 115, 163)" fill-opacity="0.50"/><path d="M-19,-39L14,23L49,21Z" fill="rgb(170, 185, 240)" fill-opacity="0.57"/><path d="M45,-25L61,7L52,18Z" fill="rgb(14, 29, 64)" fill-opacity="0.33"/><path d="M237,51L217,76L220,89Z" fill="rgb(86, 107, 133)" fill-opacity="0.47"/><path d="M160,111L142,96L153,127Z" fill="rgb(53, 42, 58)" fill-opacity="0.51"/><path d="M11,101L0,90L32,91Z" fill="rgb(61, 85, 131)" fill-opacity="0.45"/><path d="M60,46L69,28L62,23Z" fill="rgb(13, 29, 70)" fill-opacity="0.36"/><path d="M242,117L261,97L269,161Z" fill="rgb(46, 67, 88)" fill-opacity="0.65"/><path d="M228,103L216,124L204,108Z" fill="rgb(51, 68, 84)" fill-opacity="0.55"/><path d="M173,36L218,30L188,16Z" fill="rgb(179, 187, 234)" fill-opacity="0.47"/><path d="M147,49L137,64L140,35Z" fill="rgb(184, 145, 171)" fill-opacity="0.57"/><path d="M155,75L134,51L146,82Z" fill="rgb(178, 157, 194)" fill-opacity="0.70"/><path d="M193,112L219,99L207,77Z" fill="rgb(107, 127, 174)" fill-opacity="0.45"/><path d="M131,54L114,49L126,64Z" fill="rgb(232, 186, 212)" fill-opacity="0.59"/><path d="M165,83L143,87L153,75Z" fill="rgb(65, 57, 82)" fill-opacity="0.50"/><path d="M217,26L245,22L242,15Z" fill="rgb(155, 166, 212)" fill-opacity="0.62"/><path d="M190,116L224,118L190,119Z" fill="rgb(54, 73, 97)" fill-opacity="0.42"/><path d="M141,71L114,69L143,83Z" fill="rgb(158, 121, 138)" fill-opacity="0.39"/><path d="M17,92L30,93L18,76Z" fill="rgb(39, 50, 86)" fill-opacity="0.49"/><path d="M186,30L187,40L190,36Z" fill="rgb(87, 109, 136)" fill-opacity="0.58"/><path d="M240,55L231,60L248,74Z" fill="rgb(164, 170, 200)" fill-opacity="0.48"/><path d="M121,131L148,123L121,121Z" fill="rgb(81, 84, 124)" fill-opacity="0.45"/><path d="M142,120L153,120L146,114Z" fill="rgb(44, 38, 55)" fill-opacity="0.49"/><path d="M147,81L140,106L141,107Z" fill="rgb(161, 130, 167)" fill-opacity="0.64"/><path d="M210,96L232,92L202,89Z" fill="rgb(68, 88, 114)" fill-opacity="0.52"/><path d="M18,54L14,95L2,79Z" fill="rgb(149, 160, 218)" fill-opacity="0.56"/><path d="M237,52L236,58L251,50Z" fill="rgb(97, 111, 131)" fill-opacity="0.49"/><path d="M247,86L225,103L256,94Z" fill="rgb(147, 156, 209)" fill-opacity="0.45"/><path d="M103,120L92,114L82,154Z" fill="rgb(252, 202, 223)" fill-opacity="0.39"/><path d="M96,83L119,89L108,80Z" fill="rgb(57, 54, 81)" fill-opacity="0.54"/></svg>
