<svg xmlns="http://www.w3.org/2000/svg" viewBox="0 0 256 144.10917361637604" clip-path="url(#clip)"><defs><clipPath id="clip" clipPathUnits="objectBoundingBox"><rect x="0" y="0" width="256" height="144.10917361637604"/></clipPath></defs><rect x="0" y="0" width="256" height="144.10917361637604" fill="rgb(108, 116, 141)"/><path d="M206,-17L110,137L-222,41Z" fill="rgb(206, 198, 207)" fill-opacity="0.63"/><path d="M64,29L94,33L77,68Z" fill="rgb(2, 16, 24)" fill-opacity="0.50"/><path d="M50,56L139,69L47,135Z" fill="rgb(255, 235, 232)" fill-opacity="0.56"/><path d="M138,25L141,11L179,15Z" fill="rgb(0, 4, 9)" fill-opacity="0.52"/><path d="M176,100L135,92L133,45Z" fill="rgb(43, 39, 46)" fill-opacity="0.51"/><path d="M101,159L49,138L97,121Z" fill="rgb(7, 16, 18)" fill-opacity="0.60"/><path d="M235,134L175,-82L176,124Z" fill="rgb(148, 149, 169)" fill-opacity="0.91"/><path d="M191,199L130,127L168,81Z" fill="rgb(47, 45, 49)" fill-opacity="0.62"/><path d="M130,136L140,81L43,113Z" fill="rgb(227, 195, 196)" fill-opacity="0.47"/><path d="M128,-66L131,122L88,39Z" fill="rgb(181, 185, 204)" fill-opacity="0.76"/><path d="M145,67L175,51L176,88Z" fill="rgb(64, 57, 60)" fill-opacity="0.56"/><path d="M230,39L250,78L210,103Z" fill="rgb(49, 76, 79)" fill-opacity="0.51"/><path d="M4,97L37,100L22,71Z" fill="rgb(255, 255, 240)" fill-opacity="0.59"/><path d="M203,160L171,95L180,61Z" fill="rgb(235, 180, 172)" fill-opacity="0.46"/><path d="M84,135L57,166L54,119Z" fill="rgb(36, 45, 53)" fill-opacity="0.59"/><path d="M166,35L170,9L154,13Z" fill="rgb(31, 33, 39)" fill-opacity="0.53"/><path d="M41,7L-20,8L4,98Z" fill="rgb(78, 107, 157)" fill-opacity="0.35"/><path d="M157,141L182,140L166,164Z" fill="rgb(176, 138, 146)" fill-opacity="0.62"/><path d="M94,149L105,127L159,145Z" fill="rgb(201, 160, 168)" fill-opacity="0.54"/><path d="M23,109L7,110L20,67Z" fill="rgb(233, 233, 223)" fill-opacity="0.64"/><path d="M72,25L90,58L76,63Z" fill="rgb(44, 51, 60)" fill-opacity="0.64"/><path d="M176,70L144,109L128,51Z" fill="rgb(86, 85, 98)" fill-opacity="0.71"/><path d="M66,70L73,14L16,64Z" fill="rgb(163, 172, 198)" fill-opacity="0.73"/><path d="M61,101L53,153L1,116Z" fill="rgb(154, 148, 170)" fill-opacity="0.59"/><path d="M119,100L110,79L106,150Z" fill="rgb(127, 129, 157)" fill-opacity="0.49"/><path d="M56,67L70,126L107,68Z" fill="rgb(255, 245, 244)" fill-opacity="0.57"/><path d="M147,30L233,22L160,59Z" fill="rgb(158, 151, 167)" fill-opacity="0.82"/><path d="M112,130L122,127L112,143Z" fill="rgb(250, 212, 217)" fill-opacity="0.48"/><path d="M2,79L11,117L-12,104Z" fill="rgb(123, 135, 163)" fill-opacity="0.93"/><path d="M163,-6L234,23L174,54Z" fill="rgb(140, 147, 173)" fill-opacity="0.76"/><path d="M112,143L129,49L132,77Z" fill="rgb(251, 214, 202)" fill-opacity="0.52"/><path d="M227,96L241,122L227,127Z" fill="rgb(179, 179, 197)" fill-opacity="0.52"/><path d="M230,114L212,87L210,117Z" fill="rgb(190, 195, 215)" fill-opacity="0.49"/><path d="M178,55L179,63L166,47Z" fill="rgb(79, 69, 72)" fill-opacity="0.50"/><path d="M137,17L150,16L143,29Z" fill="rgb(18, 23, 30)" fill-opacity="0.49"/><path d="M75,134L98,121L100,134Z" fill="rgb(36, 45, 56)" fill-opacity="0.63"/><path d="M188,120L191,133L169,85Z" fill="rgb(113, 105, 124)" fill-opacity="0.49"/><path d="M162,64L154,32L114,42Z" fill="rgb(226, 198, 199)" fill-opacity="0.46"/><path d="M57,102L45,105L52,152Z" fill="rgb(221, 179, 179)" fill-opacity="0.58"/><path d="M151,15L165,8L171,31Z" fill="rgb(31, 37, 44)" fill-opacity="0.39"/><path d="M163,55L157,107L147,101Z" fill="rgb(126, 117, 136)" fill-opacity="0.60"/><path d="M27,80L27,70L9,80Z" fill="rgb(117, 144, 59)" fill-opacity="0.50"/><path d="M67,126L48,152L89,128Z" fill="rgb(41, 52, 63)" fill-opacity="0.85"/><path d="M34,90L29,151L50,104Z" fill="rgb(133, 148, 182)" fill-opacity="0.56"/><path d="M176,64L185,118L183,53Z" fill="rgb(218, 178, 170)" fill-opacity="0.57"/><path d="M90,43L86,58L67,46Z" fill="rgb(33, 42, 50)" fill-opacity="0.50"/><path d="M165,14L170,21L162,33Z" fill="rgb(42, 42, 44)" fill-opacity="0.49"/><path d="M149,103L136,122L138,86Z" fill="rgb(59, 62, 71)" fill-opacity="0.58"/><path d="M280,90L254,-86L232,62Z" fill="rgb(86, 103, 125)" fill-opacity="0.74"/><path d="M4,101L11,80L33,84Z" fill="rgb(249, 247, 253)" fill-opacity="0.51"/><path d="M204,69L235,103L238,64Z" fill="rgb(66, 87, 93)" fill-opacity="0.60"/><path d="M89,1L6,-32L17,63Z" fill="rgb(146, 155, 184)" fill-opacity="0.52"/><path d="M67,127L54,69L96,113Z" fill="rgb(238, 223, 223)" fill-opacity="0.53"/><path d="M161,59L163,24L141,30Z" fill="rgb(233, 131, 99)" fill-opacity="0.27"/><path d="M78,40L79,26L88,33Z" fill="rgb(39, 51, 63)" fill-opacity="0.56"/><path d="M167,56L168,93L182,52Z" fill="rgb(59, 55, 57)" fill-opacity="0.45"/><path d="M126,136L138,139L139,130Z" fill="rgb(36, 44, 53)" fill-opacity="0.48"/><path d="M90,59L74,55L72,61Z" fill="rgb(31, 41, 54)" fill-opacity="0.51"/><path d="M134,11L150,51L86,58Z" fill="rgb(177, 184, 206)" fill-opacity="0.68"/><path d="M20,73L9,69L30,67Z" fill="rgb(229, 252, 186)" fill-opacity="0.42"/><path d="M12,75L27,82L24,72Z" fill="rgb(154, 173, 104)" fill-opacity="0.54"/><path d="M100,101L85,92L99,80Z" fill="rgb(203, 154, 151)" fill-opacity="0.40"/><path d="M194,129L188,96L177,96Z" fill="rgb(234, 203, 200)" fill-opacity="0.44"/><path d="M196,128L221,148L195,85Z" fill="rgb(113, 123, 153)" fill-opacity="0.63"/><path d="M137,80L134,73L128,99Z" fill="rgb(124, 98, 103)" fill-opacity="0.56"/><path d="M156,19L157,35L146,21Z" fill="rgb(241, 199, 191)" fill-opacity="0.52"/><path d="M226,67L221,97L240,93Z" fill="rgb(57, 76, 83)" fill-opacity="0.53"/><path d="M224,5L202,47L220,74Z" fill="rgb(126, 136, 159)" fill-opacity="0.75"/><path d="M170,10L247,-56L29,6Z" fill="rgb(142, 150, 177)" fill-opacity="0.59"/><path d="M73,60L60,74L90,63Z" fill="rgb(235, 213, 213)" fill-opacity="0.59"/><path d="M0,89L-6,6L22,-5Z" fill="rgb(118, 131, 159)" fill-opacity="0.54"/><path d="M59,96L57,82L59,134Z" fill="rgb(116, 77, 83)" fill-opacity="0.42"/><path d="M105,145L108,121L111,128Z" fill="rgb(128, 108, 120)" fill-opacity="0.61"/><path d="M71,44L88,32L73,28Z" fill="rgb(46, 56, 65)" fill-opacity="0.45"/><path d="M111,154L99,148L99,130Z" fill="rgb(242, 186, 180)" fill-opacity="0.51"/><path d="M146,62L132,71L144,93Z" fill="rgb(52, 57, 65)" fill-opacity="0.47"/><path d="M213,96L235,127L238,96Z" fill="rgb(158, 161, 182)" fill-opacity="0.47"/><path d="M237,119L205,271L288,68Z" fill="rgb(77, 96, 122)" fill-opacity="0.54"/><path d="M49,15L41,62L85,16Z" fill="rgb(166, 173, 195)" fill-opacity="0.78"/><path d="M145,139L145,155L131,138Z" fill="rgb(199, 147, 149)" fill-opacity="0.49"/><path d="M129,112L117,123L131,97Z" fill="rgb(138, 110, 121)" fill-opacity="0.50"/><path d="M212,73L180,61L162,-6Z" fill="rgb(165, 172, 193)" fill-opacity="0.34"/><path d="M86,36L85,36L86,54Z" fill="rgb(240, 235, 250)" fill-opacity="0.53"/><path d="M59,124L84,104L85,126Z" fill="rgb(240, 218, 217)" fill-opacity="0.36"/><path d="M134,109L143,90L135,131Z" fill="rgb(62, 67, 76)" fill-opacity="0.59"/><path d="M213,101L224,97L212,119Z" fill="rgb(213, 217, 229)" fill-opacity="0.43"/><path d="M59,121L55,138L59,77Z" fill="rgb(130, 80, 82)" fill-opacity="0.31"/><path d="M14,142L22,107L61,162Z" fill="rgb(122, 136, 165)" fill-opacity="0.60"/><path d="M68,50L90,59L68,33Z" fill="rgb(61, 70, 80)" fill-opacity="0.47"/><path d="M125,56L137,53L147,59Z" fill="rgb(36, 42, 58)" fill-opacity="0.37"/><path d="M226,132L249,112L238,138Z" fill="rgb(108, 119, 143)" fill-opacity="0.47"/><path d="M100,70L109,111L101,137Z" fill="rgb(244, 205, 197)" fill-opacity="0.52"/><path d="M137,104L123,119L138,90Z" fill="rgb(185, 189, 208)" fill-opacity="0.62"/><path d="M100,96L94,113L100,128Z" fill="rgb(163, 118, 124)" fill-opacity="0.44"/><path d="M1,160L2,115L-22,68Z" fill="rgb(12, 24, 41)" fill-opacity="0.37"/><path d="M175,59L184,58L179,70Z" fill="rgb(208, 168, 158)" fill-opacity="0.50"/><path d="M136,140L140,126L147,124Z" fill="rgb(110, 101, 114)" fill-opacity="0.53"/><path d="M174,109L180,141L133,118Z" fill="rgb(34, 43, 53)" fill-opacity="0.34"/><path d="M208,49L208,59L213,51Z" fill="rgb(70, 90, 104)" fill-opacity="0.50"/><path d="M140,29L146,29L140,16Z" fill="rgb(57, 57, 65)" fill-opacity="0.55"/><path d="M82,62L88,58L79,44Z" fill="rgb(19, 26, 31)" fill-opacity="0.38"/><path d="M167,53L156,61L145,60Z" fill="rgb(244, 210, 194)" fill-opacity="0.59"/><path d="M131,57L135,68L155,79Z" fill="rgb(58, 63, 74)" fill-opacity="0.55"/><path d="M134,66L120,107L130,60Z" fill="rgb(238, 211, 202)" fill-opacity="0.70"/><path d="M147,42L90,0L88,43Z" fill="rgb(174, 182, 204)" fill-opacity="0.51"/><path d="M160,28L151,20L145,27Z" fill="rgb(255, 224, 214)" fill-opacity="0.43"/><path d="M196,167L172,146L190,125Z" fill="rgb(149, 131, 151)" fill-opacity="0.44"/><path d="M154,101L156,87L161,81Z" fill="rgb(170, 145, 153)" fill-opacity="0.47"/><path d="M149,45L139,53L154,63Z" fill="rgb(253, 218, 201)" fill-opacity="0.48"/><path d="M108,72L83,72L67,104Z" fill="rgb(253, 246, 244)" fill-opacity="0.48"/><path d="M165,87L179,101L161,78Z" fill="rgb(55, 62, 75)" fill-opacity="0.51"/><path d="M71,30L79,30L81,31Z" fill="rgb(225, 224, 231)" fill-opacity="0.49"/><path d="M140,-4L192,-14L250,33Z" fill="rgb(124, 131, 161)" fill-opacity="0.59"/><path d="M50,74L19,67L74,60Z" fill="rgb(164, 172, 197)" fill-opacity="0.67"/><path d="M100,134L105,131L100,146Z" fill="rgb(230, 187, 189)" fill-opacity="0.51"/><path d="M177,124L172,99L177,69Z" fill="rgb(143, 142, 160)" fill-opacity="0.57"/><path d="M211,28L219,34L200,63Z" fill="rgb(151, 156, 183)" fill-opacity="0.41"/><path d="M55,145L44,175L50,121Z" fill="rgb(209, 164, 168)" fill-opacity="0.52"/><path d="M60,41L95,39L70,39Z" fill="rgb(142, 145, 160)" fill-opacity="0.47"/><path d="M234,40L246,62L246,51Z" fill="rgb(55, 76, 90)" fill-opacity="0.56"/><path d="M195,121L198,141L190,137Z" fill="rgb(223, 168, 171)" fill-opacity="0.47"/><path d="M153,42L162,31L159,24Z" fill="rgb(158, 118, 120)" fill-opacity="0.50"/></svg>
