<svg xmlns="http://www.w3.org/2000/svg" viewBox="0 0 256 170.4" clip-path="url(#clip)"><defs><clipPath id="clip" clipPathUnits="objectBoundingBox"><rect x="0" y="0" width="256" height="170.4"/></clipPath></defs><rect x="0" y="0" width="256" height="170.4" fill="rgb(87, 76, 80)"/><path d="M32,-21L21,126L-93,66Z" fill="rgb(255, 250, 243)" fill-opacity="0.80"/><path d="M159,51L91,-168L235,39Z" fill="rgb(215, 210, 205)" fill-opacity="0.95"/><path d="M240,256L53,33L284,59Z" fill="rgb(5, 3, 9)" fill-opacity="0.67"/><path d="M101,83L116,78L105,110Z" fill="rgb(246, 249, 246)" fill-opacity="0.52"/><path d="M156,66L182,134L201,137Z" fill="rgb(171, 156, 158)" fill-opacity="0.69"/><path d="M167,41L225,43L179,54Z" fill="rgb(255, 255, 236)" fill-opacity="0.44"/><path d="M126,67L145,51L122,27Z" fill="rgb(134, 111, 114)" fill-opacity="0.75"/><path d="M163,97L175,105L155,13Z" fill="rgb(160, 156, 156)" fill-opacity="0.80"/><path d="M255,7L140,-72L145,25Z" fill="rgb(255, 255, 255)" fill-opacity="0.39"/><path d="M52,93L37,17L-68,90Z" fill="rgb(231, 255, 255)" fill-opacity="0.41"/><path d="M-24,277L105,95L65,44Z" fill="rgb(0, 6, 21)" fill-opacity="0.53"/><path d="M5,170L25,126L-5,75Z" fill="rgb(196, 126, 127)" fill-opacity="0.45"/><path d="M103,115L91,117L104,92Z" fill="rgb(255, 255, 255)" fill-opacity="0.45"/><path d="M59,195L117,90L180,118Z" fill="rgb(17, 12, 22)" fill-opacity="0.65"/><path d="M89,170L62,133L0,177Z" fill="rgb(7, 2, 11)" fill-opacity="0.69"/><path d="M126,134L136,157L103,152Z" fill="rgb(150, 138, 154)" fill-opacity="0.53"/><path d="M-13,-43L74,51L169,-13Z" fill="rgb(21, 24, 41)" fill-opacity="0.63"/><path d="M124,29L155,64L171,35Z" fill="rgb(43, 35, 39)" fill-opacity="0.51"/><path d="M88,126L70,148L89,150Z" fill="rgb(255, 195, 193)" fill-opacity="0.49"/><path d="M195,2L232,39L256,26Z" fill="rgb(165, 105, 113)" fill-opacity="0.60"/><path d="M122,-84L186,34L156,34Z" fill="rgb(255, 255, 252)" fill-opacity="0.69"/><path d="M167,145L146,136L137,166Z" fill="rgb(179, 181, 203)" fill-opacity="0.38"/><path d="M23,151L31,189L-14,117Z" fill="rgb(39, 0, 16)" fill-opacity="0.42"/><path d="M192,57L218,257L371,-18Z" fill="rgb(3, 1, 5)" fill-opacity="0.81"/><path d="M87,136L112,60L113,99Z" fill="rgb(193, 193, 192)" fill-opacity="0.44"/><path d="M260,28L268,46L222,39Z" fill="rgb(25, 17, 26)" fill-opacity="0.48"/><path d="M183,122L193,145L205,133Z" fill="rgb(182, 120, 130)" fill-opacity="0.56"/><path d="M31,187L-3,157L-48,156Z" fill="rgb(60, 2, 11)" fill-opacity="0.69"/><path d="M67,20L59,131L18,105Z" fill="rgb(95, 106, 122)" fill-opacity="0.51"/><path d="M-3,29L10,20L3,-4Z" fill="rgb(140, 113, 119)" fill-opacity="0.42"/><path d="M159,47L168,64L164,77Z" fill="rgb(191, 176, 175)" fill-opacity="0.50"/><path d="M2,107L19,108L-23,82Z" fill="rgb(139, 115, 126)" fill-opacity="0.46"/><path d="M178,116L221,195L138,124Z" fill="rgb(9, 4, 5)" fill-opacity="0.61"/><path d="M92,135L122,167L78,192Z" fill="rgb(0, 0, 0)" fill-opacity="0.71"/><path d="M240,34L222,35L260,6Z" fill="rgb(253, 138, 131)" fill-opacity="0.43"/><path d="M112,135L105,166L114,153Z" fill="rgb(10, 1, 7)" fill-opacity="0.57"/><path d="M25,108L20,166L73,191Z" fill="rgb(12, 9, 19)" fill-opacity="0.69"/><path d="M182,112L186,56L225,160Z" fill="rgb(6, 3, 10)" fill-opacity="0.78"/><path d="M66,85L109,72L85,134Z" fill="rgb(24, 20, 33)" fill-opacity="0.64"/><path d="M108,53L115,102L135,58Z" fill="rgb(72, 55, 60)" fill-opacity="0.60"/><path d="M216,175L238,175L231,161Z" fill="rgb(150, 61, 54)" fill-opacity="0.47"/><path d="M22,127L1,122L16,150Z" fill="rgb(219, 157, 147)" fill-opacity="0.51"/><path d="M115,19L129,21L123,42Z" fill="rgb(233, 217, 209)" fill-opacity="0.40"/><path d="M61,16L18,51L33,104Z" fill="rgb(179, 230, 255)" fill-opacity="0.19"/><path d="M153,55L134,3L126,36Z" fill="rgb(22, 13, 28)" fill-opacity="0.56"/><path d="M239,0L206,13L145,-28Z" fill="rgb(225, 218, 200)" fill-opacity="0.46"/><path d="M207,69L148,54L239,39Z" fill="rgb(116, 108, 139)" fill-opacity="0.22"/><path d="M224,137L159,161L139,251Z" fill="rgb(3, 0, 1)" fill-opacity="0.83"/><path d="M221,34L187,42L152,36Z" fill="rgb(107, 101, 95)" fill-opacity="0.47"/><path d="M63,64L122,42L78,-49Z" fill="rgb(41, 38, 50)" fill-opacity="1.00"/><path d="M266,-5L251,16L209,37Z" fill="rgb(31, 5, 18)" fill-opacity="0.45"/><path d="M140,42L142,56L124,56Z" fill="rgb(178, 153, 153)" fill-opacity="0.54"/><path d="M145,88L131,67L138,109Z" fill="rgb(110, 100, 109)" fill-opacity="0.38"/><path d="M37,6L25,-32L30,51Z" fill="rgb(96, 118, 148)" fill-opacity="0.51"/><path d="M112,141L134,140L128,169Z" fill="rgb(137, 129, 144)" fill-opacity="0.63"/><path d="M129,55L133,46L126,44Z" fill="rgb(240, 220, 218)" fill-opacity="0.49"/><path d="M169,79L163,100L185,117Z" fill="rgb(194, 190, 188)" fill-opacity="0.41"/><path d="M157,59L166,46L140,12Z" fill="rgb(85, 83, 83)" fill-opacity="0.59"/><path d="M103,115L98,105L77,147Z" fill="rgb(177, 181, 181)" fill-opacity="0.45"/><path d="M184,48L166,47L162,37Z" fill="rgb(248, 240, 217)" fill-opacity="0.46"/><path d="M22,104L42,111L20,139Z" fill="rgb(55, 56, 71)" fill-opacity="0.61"/><path d="M145,101L132,206L133,124Z" fill="rgb(19, 15, 36)" fill-opacity="0.60"/><path d="M163,140L138,152L149,138Z" fill="rgb(138, 136, 147)" fill-opacity="0.56"/><path d="M172,90L192,130L178,119Z" fill="rgb(183, 188, 185)" fill-opacity="0.51"/><path d="M21,122L32,79L22,89Z" fill="rgb(105, 113, 125)" fill-opacity="0.53"/><path d="M142,219L162,120L164,152Z" fill="rgb(67, 48, 61)" fill-opacity="0.73"/><path d="M216,21L244,10L233,5Z" fill="rgb(101, 60, 87)" fill-opacity="0.62"/><path d="M88,144L74,152L75,144Z" fill="rgb(242, 184, 173)" fill-opacity="0.70"/><path d="M22,145L20,124L-6,163Z" fill="rgb(196, 156, 154)" fill-opacity="0.34"/><path d="M107,110L100,135L107,130Z" fill="rgb(96, 86, 94)" fill-opacity="0.61"/><path d="M233,12L215,30L240,15Z" fill="rgb(222, 205, 218)" fill-opacity="0.30"/><path d="M82,68L56,10L27,22Z" fill="rgb(61, 67, 90)" fill-opacity="0.39"/><path d="M115,138L103,121L134,138Z" fill="rgb(4, 1, 12)" fill-opacity="0.55"/><path d="M124,49L130,40L105,34Z" fill="rgb(23, 7, 21)" fill-opacity="0.57"/><path d="M43,27L55,96L35,39Z" fill="rgb(112, 124, 142)" fill-opacity="0.63"/><path d="M133,53L153,64L137,38Z" fill="rgb(121, 96, 100)" fill-opacity="0.36"/><path d="M208,22L179,26L216,44Z" fill="rgb(250, 247, 239)" fill-opacity="0.49"/><path d="M106,99L106,73L115,84Z" fill="rgb(184, 182, 178)" fill-opacity="0.54"/><path d="M8,110L21,99L21,133Z" fill="rgb(229, 213, 201)" fill-opacity="0.75"/><path d="M74,158L40,146L76,125Z" fill="rgb(38, 34, 45)" fill-opacity="0.82"/><path d="M26,164L-2,129L11,156Z" fill="rgb(61, 29, 47)" fill-opacity="0.61"/><path d="M154,65L144,79L147,80Z" fill="rgb(142, 139, 147)" fill-opacity="0.46"/><path d="M110,65L115,76L99,74Z" fill="rgb(100, 74, 81)" fill-opacity="0.47"/><path d="M217,161L152,185L280,185Z" fill="rgb(79, 34, 39)" fill-opacity="0.55"/><path d="M198,26L211,13L190,15Z" fill="rgb(168, 158, 168)" fill-opacity="0.50"/><path d="M142,96L141,90L137,90Z" fill="rgb(228, 197, 188)" fill-opacity="0.50"/><path d="M22,77L27,6L-30,65Z" fill="rgb(255, 253, 243)" fill-opacity="0.48"/><path d="M-2,145L12,163L-14,149Z" fill="rgb(184, 140, 146)" fill-opacity="0.53"/><path d="M123,22L140,19L124,26Z" fill="rgb(44, 38, 50)" fill-opacity="0.48"/><path d="M53,39L56,106L39,101Z" fill="rgb(92, 98, 109)" fill-opacity="0.70"/><path d="M111,112L106,120L104,114Z" fill="rgb(108, 110, 125)" fill-opacity="0.49"/><path d="M156,47L212,55L151,54Z" fill="rgb(61, 55, 63)" fill-opacity="0.68"/><path d="M130,104L119,100L121,119Z" fill="rgb(75, 70, 80)" fill-opacity="0.54"/><path d="M21,148L19,123L5,114Z" fill="rgb(185, 137, 132)" fill-opacity="0.57"/><path d="M150,39L192,39L145,30Z" fill="rgb(126, 128, 121)" fill-opacity="0.47"/><path d="M130,41L135,52L142,-5Z" fill="rgb(45, 30, 43)" fill-opacity="0.60"/><path d="M166,94L159,92L163,115Z" fill="rgb(10, 1, 5)" fill-opacity="0.48"/><path d="M219,24L234,15L207,12Z" fill="rgb(79, 58, 88)" fill-opacity="0.37"/><path d="M139,169L153,167L141,142Z" fill="rgb(116, 127, 148)" fill-opacity="0.45"/><path d="M194,144L207,138L194,130Z" fill="rgb(140, 59, 70)" fill-opacity="0.60"/><path d="M112,121L99,134L99,133Z" fill="rgb(203, 195, 183)" fill-opacity="0.62"/><path d="M117,131L133,125L100,127Z" fill="rgb(70, 61, 67)" fill-opacity="0.50"/><path d="M193,127L183,61L173,91Z" fill="rgb(7, 2, 9)" fill-opacity="0.65"/><path d="M208,167L208,230L204,166Z" fill="rgb(178, 119, 129)" fill-opacity="0.52"/><path d="M233,12L242,11L263,-15Z" fill="rgb(116, 82, 100)" fill-opacity="0.72"/><path d="M123,154L123,135L129,149Z" fill="rgb(159, 162, 175)" fill-opacity="0.59"/><path d="M214,112L184,118L213,141Z" fill="rgb(24, 19, 38)" fill-opacity="0.43"/><path d="M172,165L184,132L170,148Z" fill="rgb(66, 49, 55)" fill-opacity="0.56"/><path d="M157,57L144,79L153,45Z" fill="rgb(7, 0, 7)" fill-opacity="0.48"/><path d="M202,40L219,39L199,48Z" fill="rgb(255, 255, 249)" fill-opacity="0.46"/><path d="M218,31L210,38L173,41Z" fill="rgb(137, 127, 123)" fill-opacity="0.49"/><path d="M105,83L101,97L66,63Z" fill="rgb(26, 22, 35)" fill-opacity="0.64"/><path d="M227,17L230,14L212,0Z" fill="rgb(101, 70, 90)" fill-opacity="0.65"/><path d="M39,145L32,181L18,148Z" fill="rgb(5, 3, 7)" fill-opacity="0.61"/><path d="M98,154L64,180L26,152Z" fill="rgb(17, 11, 20)" fill-opacity="0.73"/><path d="M82,153L71,153L94,143Z" fill="rgb(167, 66, 64)" fill-opacity="0.53"/><path d="M120,81L119,92L120,91Z" fill="rgb(255, 255, 255)" fill-opacity="0.57"/><path d="M163,44L162,40L178,41Z" fill="rgb(255, 255, 235)" fill-opacity="0.52"/><path d="M116,115L111,126L136,126Z" fill="rgb(8, 9, 18)" fill-opacity="0.62"/><path d="M162,76L137,101L156,64Z" fill="rgb(10, 6, 17)" fill-opacity="0.48"/><path d="M160,75L161,53L179,114Z" fill="rgb(192, 184, 180)" fill-opacity="0.49"/><path d="M69,96L86,130L76,137Z" fill="rgb(26, 22, 36)" fill-opacity="0.44"/><path d="M60,15L21,-5L108,0Z" fill="rgb(11, 7, 25)" fill-opacity="0.33"/><path d="M124,157L127,157L125,168Z" fill="rgb(157, 156, 170)" fill-opacity="0.54"/><path d="M141,80L140,64L136,83Z" fill="rgb(0, 0, 10)" fill-opacity="0.50"/><path d="M164,105L148,140L116,136Z" fill="rgb(3, 4, 12)" fill-opacity="0.50"/><path d="M146,73L166,103L146,106Z" fill="rgb(0, 0, 6)" fill-opacity="0.48"/><path d="M259,18L238,23L255,10Z" fill="rgb(168, 85, 89)" fill-opacity="0.55"/><path d="M231,53L196,63L214,102Z" fill="rgb(16, 11, 21)" fill-opacity="0.66"/><path d="M125,57L118,55L123,70Z" fill="rgb(0, 0, 0)" fill-opacity="0.59"/><path d="M25,13L28,60L39,37Z" fill="rgb(154, 171, 186)" fill-opacity="0.41"/><path d="M121,157L112,158L127,139Z" fill="rgb(112, 102, 116)" fill-opacity="0.46"/><path d="M144,15L140,-17L149,3Z" fill="rgb(147, 155, 169)" fill-opacity="0.59"/><path d="M149,57L149,49L141,86Z" fill="rgb(119, 112, 117)" fill-opacity="0.40"/><path d="M245,24L259,12L270,33Z" fill="rgb(138, 4, 25)" fill-opacity="0.34"/><path d="M218,29L208,18L176,35Z" fill="rgb(249, 241, 232)" fill-opacity="0.49"/><path d="M131,70L143,99L145,109Z" fill="rgb(119, 106, 107)" fill-opacity="0.47"/><path d="M223,23L201,28L220,29Z" fill="rgb(246, 236, 224)" fill-opacity="0.46"/><path d="M35,0L85,36L36,20Z" fill="rgb(48, 47, 68)" fill-opacity="0.56"/><path d="M120,72L103,67L118,52Z" fill="rgb(88, 61, 66)" fill-opacity="0.52"/></svg>
