<svg xmlns="http://www.w3.org/2000/svg" viewBox="0 0 256 170.66666666666666" clip-path="url(#clip)"><defs><clipPath id="clip" clipPathUnits="objectBoundingBox"><rect x="0" y="0" width="256" height="170.66666666666666"/></clipPath></defs><rect x="0" y="0" width="256" height="170.66666666666666" fill="rgb(174, 199, 214)"/><path d="M199,183L122,94L161,58Z" fill="rgb(82, 33, 13)" fill-opacity="0.65"/><path d="M193,143L61,113L44,465Z" fill="rgb(233, 194, 154)" fill-opacity="0.73"/><path d="M107,55L119,114L78,134Z" fill="rgb(142, 56, 1)" fill-opacity="0.57"/><path d="M163,156L179,152L169,197Z" fill="rgb(91, 52, 43)" fill-opacity="0.46"/><path d="M154,46L125,150L105,57Z" fill="rgb(232, 172, 121)" fill-opacity="0.64"/><path d="M174,139L129,125L167,77Z" fill="rgb(19, 0, 3)" fill-opacity="0.49"/><path d="M163,86L134,82L141,124Z" fill="rgb(99, 66, 63)" fill-opacity="0.71"/><path d="M139,154L131,88L105,127Z" fill="rgb(230, 204, 171)" fill-opacity="0.75"/><path d="M164,72L154,53L134,72Z" fill="rgb(118, 70, 63)" fill-opacity="0.70"/><path d="M111,128L113,90L90,84Z" fill="rgb(88, 32, 11)" fill-opacity="0.49"/><path d="M68,117L46,220L139,144Z" fill="rgb(232, 207, 176)" fill-opacity="0.97"/><path d="M78,147L90,157L81,209Z" fill="rgb(190, 115, 45)" fill-opacity="0.43"/><path d="M153,134L159,123L162,147Z" fill="rgb(131, 105, 90)" fill-opacity="0.47"/><path d="M86,114L92,86L127,51Z" fill="rgb(146, 93, 59)" fill-opacity="0.71"/><path d="M189,133L174,124L172,90Z" fill="rgb(159, 170, 179)" fill-opacity="0.56"/><path d="M142,98L126,131L150,123Z" fill="rgb(140, 95, 77)" fill-opacity="0.42"/><path d="M40,-60L400,40L164,66Z" fill="rgb(159, 195, 222)" fill-opacity="0.91"/><path d="M275,176L184,178L252,94Z" fill="rgb(178, 226, 253)" fill-opacity="0.59"/><path d="M93,105L115,118L98,129Z" fill="rgb(115, 39, 0)" fill-opacity="0.38"/><path d="M141,-113L-142,232L84,119Z" fill="rgb(162, 198, 221)" fill-opacity="0.90"/><path d="M108,153L115,101L137,96Z" fill="rgb(247, 220, 183)" fill-opacity="0.60"/><path d="M136,60L128,61L136,64Z" fill="rgb(126, 53, 28)" fill-opacity="0.49"/><path d="M128,95L140,89L100,86Z" fill="rgb(184, 124, 73)" fill-opacity="0.49"/><path d="M106,91L121,82L113,72Z" fill="rgb(255, 214, 152)" fill-opacity="0.49"/><path d="M94,108L84,124L90,103Z" fill="rgb(186, 190, 198)" fill-opacity="0.42"/><path d="M147,51L117,56L130,48Z" fill="rgb(120, 78, 69)" fill-opacity="0.55"/><path d="M148,-95L91,88L142,25Z" fill="rgb(172, 203, 223)" fill-opacity="0.72"/><path d="M186,178L192,159L168,143Z" fill="rgb(218, 184, 142)" fill-opacity="0.50"/><path d="M149,110L167,140L162,94Z" fill="rgb(3, 3, 15)" fill-opacity="0.60"/><path d="M115,91L145,79L121,59Z" fill="rgb(255, 230, 189)" fill-opacity="0.52"/><path d="M192,156L186,153L187,142Z" fill="rgb(107, 89, 100)" fill-opacity="0.61"/><path d="M52,129L-52,172L62,191Z" fill="rgb(178, 233, 254)" fill-opacity="0.39"/><path d="M153,88L141,116L138,90Z" fill="rgb(72, 45, 45)" fill-opacity="0.48"/><path d="M176,112L179,134L162,121Z" fill="rgb(137, 91, 59)" fill-opacity="0.41"/><path d="M87,144L116,168L90,176Z" fill="rgb(255, 233, 190)" fill-opacity="0.43"/><path d="M172,156L109,187L181,138Z" fill="rgb(224, 204, 178)" fill-opacity="0.66"/><path d="M119,54L115,59L137,50Z" fill="rgb(102, 60, 48)" fill-opacity="0.50"/><path d="M163,108L160,65L165,75Z" fill="rgb(21, 13, 23)" fill-opacity="0.69"/><path d="M108,177L129,163L156,217Z" fill="rgb(144, 87, 61)" fill-opacity="0.51"/><path d="M61,189L57,149L79,119Z" fill="rgb(255, 229, 192)" fill-opacity="0.53"/><path d="M208,186L151,37L278,65Z" fill="rgb(173, 209, 232)" fill-opacity="0.72"/><path d="M173,133L167,122L179,119Z" fill="rgb(168, 123, 86)" fill-opacity="0.50"/><path d="M111,77L100,80L120,59Z" fill="rgb(130, 77, 41)" fill-opacity="0.59"/><path d="M162,137L187,139L182,131Z" fill="rgb(44, 21, 25)" fill-opacity="0.44"/><path d="M81,137L156,140L121,125Z" fill="rgb(223, 217, 207)" fill-opacity="0.45"/><path d="M161,74L140,60L137,76Z" fill="rgb(171, 107, 94)" fill-opacity="0.53"/><path d="M99,100L104,85L107,101Z" fill="rgb(23, 0, 6)" fill-opacity="0.45"/><path d="M110,124L105,132L120,125Z" fill="rgb(244, 237, 217)" fill-opacity="0.53"/><path d="M169,156L137,128L143,121Z" fill="rgb(177, 151, 135)" fill-opacity="0.35"/><path d="M175,152L165,178L176,169Z" fill="rgb(97, 60, 55)" fill-opacity="0.55"/><path d="M274,69L237,142L180,147Z" fill="rgb(141, 204, 242)" fill-opacity="0.23"/><path d="M156,70L143,66L146,60Z" fill="rgb(70, 44, 51)" fill-opacity="0.54"/><path d="M114,109L88,125L107,129Z" fill="rgb(142, 93, 62)" fill-opacity="0.45"/><path d="M174,113L179,42L240,122Z" fill="rgb(188, 213, 227)" fill-opacity="0.59"/><path d="M89,155L72,155L81,128Z" fill="rgb(232, 195, 140)" fill-opacity="0.50"/><path d="M142,55L151,53L144,42Z" fill="rgb(151, 193, 228)" fill-opacity="0.50"/><path d="M165,107L149,96L151,129Z" fill="rgb(6, 7, 18)" fill-opacity="0.46"/><path d="M140,69L150,55L112,72Z" fill="rgb(255, 200, 163)" fill-opacity="0.42"/><path d="M104,88L97,117L88,123Z" fill="rgb(128, 68, 40)" fill-opacity="0.57"/><path d="M138,110L132,92L124,136Z" fill="rgb(226, 189, 139)" fill-opacity="0.49"/><path d="M128,54L115,58L106,71Z" fill="rgb(176, 118, 67)" fill-opacity="0.52"/><path d="M154,57L161,60L131,66Z" fill="rgb(131, 74, 57)" fill-opacity="0.35"/><path d="M411,74L246,97L133,-63Z" fill="rgb(138, 185, 221)" fill-opacity="0.39"/><path d="M142,158L133,148L152,143Z" fill="rgb(203, 163, 133)" fill-opacity="0.62"/><path d="M102,87L86,111L86,105Z" fill="rgb(105, 64, 62)" fill-opacity="0.42"/><path d="M114,93L112,86L114,114Z" fill="rgb(110, 57, 36)" fill-opacity="0.63"/><path d="M176,118L165,95L168,122Z" fill="rgb(78, 57, 58)" fill-opacity="0.54"/><path d="M158,125L172,140L145,131Z" fill="rgb(104, 75, 64)" fill-opacity="0.50"/><path d="M115,95L115,133L131,97Z" fill="rgb(250, 221, 180)" fill-opacity="0.65"/><path d="M122,94L124,120L142,103Z" fill="rgb(248, 213, 167)" fill-opacity="0.26"/><path d="M131,49L144,50L122,53Z" fill="rgb(125, 79, 60)" fill-opacity="0.53"/><path d="M120,91L148,90L132,84Z" fill="rgb(144, 90, 63)" fill-opacity="0.62"/><path d="M109,89L127,55L135,81Z" fill="rgb(255, 223, 190)" fill-opacity="0.47"/><path d="M-4,157L6,204L40,174Z" fill="rgb(245, 255, 253)" fill-opacity="0.28"/><path d="M162,75L170,89L162,131Z" fill="rgb(30, 20, 32)" fill-opacity="0.48"/><path d="M135,69L144,70L148,74Z" fill="rgb(158, 49, 34)" fill-opacity="0.50"/><path d="M183,129L172,131L189,150Z" fill="rgb(89, 60, 59)" fill-opacity="0.37"/><path d="M125,158L125,172L134,167Z" fill="rgb(169, 125, 95)" fill-opacity="0.55"/><path d="M166,81L179,101L166,68Z" fill="rgb(168, 190, 206)" fill-opacity="0.56"/><path d="M63,128L57,167L74,124Z" fill="rgb(253, 225, 195)" fill-opacity="0.61"/><path d="M30,72L58,170L-26,95Z" fill="rgb(177, 207, 224)" fill-opacity="0.55"/><path d="M192,153L275,155L195,213Z" fill="rgb(186, 223, 241)" fill-opacity="0.75"/><path d="M148,128L131,119L151,105Z" fill="rgb(110, 84, 82)" fill-opacity="0.52"/><path d="M172,124L165,117L173,131Z" fill="rgb(180, 135, 86)" fill-opacity="0.50"/><path d="M164,148L182,139L160,138Z" fill="rgb(174, 164, 150)" fill-opacity="0.57"/><path d="M170,164L159,168L159,157Z" fill="rgb(160, 121, 101)" fill-opacity="0.43"/><path d="M107,61L109,68L95,87Z" fill="rgb(230, 188, 138)" fill-opacity="0.42"/><path d="M139,115L138,82L126,141Z" fill="rgb(185, 136, 96)" fill-opacity="0.26"/><path d="M145,68L131,72L136,72Z" fill="rgb(169, 66, 49)" fill-opacity="0.54"/><path d="M171,98L156,103L166,78Z" fill="rgb(50, 35, 42)" fill-opacity="0.66"/><path d="M140,49L154,55L149,57Z" fill="rgb(145, 143, 156)" fill-opacity="0.52"/><path d="M-76,68L-23,147L34,148Z" fill="rgb(140, 202, 232)" fill-opacity="0.60"/><path d="M131,59L133,64L133,60Z" fill="rgb(127, 76, 54)" fill-opacity="0.49"/><path d="M135,174L142,150L170,176Z" fill="rgb(255, 220, 175)" fill-opacity="0.47"/><path d="M84,30L199,-24L95,76Z" fill="rgb(172, 204, 224)" fill-opacity="0.67"/><path d="M116,167L124,186L126,161Z" fill="rgb(207, 165, 132)" fill-opacity="0.50"/><path d="M111,89L117,88L96,103Z" fill="rgb(86, 45, 34)" fill-opacity="0.57"/><path d="M160,122L168,141L167,119Z" fill="rgb(49, 33, 34)" fill-opacity="0.63"/><path d="M89,124L107,129L67,141Z" fill="rgb(226, 211, 187)" fill-opacity="0.45"/><path d="M97,72L-35,29L74,-68Z" fill="rgb(158, 192, 217)" fill-opacity="0.59"/><path d="M137,53L132,52L142,52Z" fill="rgb(255, 255, 241)" fill-opacity="0.39"/></svg>
