<svg xmlns="http://www.w3.org/2000/svg" viewBox="0 0 256 170.66666666666666" clip-path="url(#clip)"><defs><clipPath id="clip" clipPathUnits="objectBoundingBox"><rect x="0" y="0" width="256" height="170.66666666666666"/></clipPath></defs><rect x="0" y="0" width="256" height="170.66666666666666" fill="rgb(149, 149, 147)"/><path d="M165,14L133,109L185,203Z" fill="rgb(79, 44, 41)" fill-opacity="0.78"/><path d="M155,205L69,184L121,97Z" fill="rgb(241, 227, 216)" fill-opacity="0.73"/><path d="M152,46L145,1L178,81Z" fill="rgb(32, 11, 16)" fill-opacity="0.55"/><path d="M223,196L393,-79L245,-10Z" fill="rgb(32, 10, 18)" fill-opacity="0.56"/><path d="M82,47L75,151L114,95Z" fill="rgb(82, 14, 0)" fill-opacity="0.52"/><path d="M73,123L44,125L49,163Z" fill="rgb(255, 222, 193)" fill-opacity="0.63"/><path d="M100,18L147,16L101,92Z" fill="rgb(255, 242, 218)" fill-opacity="0.50"/><path d="M242,27L150,-179L162,35Z" fill="rgb(182, 193, 185)" fill-opacity="0.55"/><path d="M250,131L164,64L218,216Z" fill="rgb(59, 55, 70)" fill-opacity="0.46"/><path d="M86,32L136,7L110,2Z" fill="rgb(114, 50, 23)" fill-opacity="0.51"/><path d="M155,72L143,18L96,68Z" fill="rgb(255, 203, 187)" fill-opacity="0.35"/><path d="M98,8L53,121L94,129Z" fill="rgb(126, 70, 38)" fill-opacity="0.40"/><path d="M45,157L75,141L77,229Z" fill="rgb(238, 203, 173)" fill-opacity="0.63"/><path d="M125,5L149,7L165,38Z" fill="rgb(92, 50, 42)" fill-opacity="0.51"/><path d="M83,114L214,120L149,79Z" fill="rgb(60, 9, 9)" fill-opacity="0.24"/><path d="M95,63L90,46L94,85Z" fill="rgb(55, 29, 29)" fill-opacity="0.62"/><path d="M242,159L257,250L256,40Z" fill="rgb(118, 118, 123)" fill-opacity="0.95"/><path d="M127,74L128,93L91,77Z" fill="rgb(255, 202, 177)" fill-opacity="0.52"/><path d="M83,122L74,123L55,157Z" fill="rgb(151, 84, 51)" fill-opacity="0.56"/><path d="M292,-17L223,1L265,6Z" fill="rgb(169, 171, 163)" fill-opacity="0.87"/><path d="M135,125L173,143L146,191Z" fill="rgb(174, 114, 81)" fill-opacity="0.64"/><path d="M204,122L189,173L219,177Z" fill="rgb(65, 73, 90)" fill-opacity="0.74"/><path d="M197,122L171,240L181,114Z" fill="rgb(207, 173, 153)" fill-opacity="0.70"/><path d="M85,128L140,112L115,217Z" fill="rgb(223, 219, 216)" fill-opacity="0.59"/><path d="M76,153L90,156L80,124Z" fill="rgb(123, 48, 15)" fill-opacity="0.48"/><path d="M185,68L138,114L160,35Z" fill="rgb(7, 13, 34)" fill-opacity="0.23"/><path d="M108,91L134,85L94,67Z" fill="rgb(234, 202, 181)" fill-opacity="0.60"/><path d="M128,37L133,44L142,37Z" fill="rgb(122, 70, 59)" fill-opacity="0.50"/><path d="M105,126L138,108L107,87Z" fill="rgb(184, 152, 140)" fill-opacity="0.48"/><path d="M99,51L61,74L109,1Z" fill="rgb(156, 109, 77)" fill-opacity="0.55"/><path d="M41,140L73,119L55,123Z" fill="rgb(249, 233, 220)" fill-opacity="0.50"/><path d="M238,71L253,45L231,211Z" fill="rgb(36, 14, 24)" fill-opacity="0.70"/><path d="M96,112L100,83L105,99Z" fill="rgb(7, 0, 4)" fill-opacity="0.52"/><path d="M153,67L141,92L117,53Z" fill="rgb(192, 135, 125)" fill-opacity="0.45"/><path d="M255,-5L251,55L279,-2Z" fill="rgb(164, 159, 147)" fill-opacity="0.54"/><path d="M235,62L251,36L252,-17Z" fill="rgb(19, 0, 4)" fill-opacity="0.38"/><path d="M50,173L24,93L-79,173Z" fill="rgb(115, 123, 130)" fill-opacity="0.67"/><path d="M101,27L16,32L73,-139Z" fill="rgb(225, 252, 225)" fill-opacity="0.19"/><path d="M108,15L139,14L126,50Z" fill="rgb(254, 226, 211)" fill-opacity="0.57"/><path d="M97,78L124,52L97,45Z" fill="rgb(252, 224, 211)" fill-opacity="0.60"/><path d="M111,72L133,66L98,50Z" fill="rgb(243, 220, 210)" fill-opacity="0.64"/><path d="M161,31L114,4L146,13Z" fill="rgb(84, 47, 42)" fill-opacity="0.44"/><path d="M97,68L71,114L110,111Z" fill="rgb(69, 42, 40)" fill-opacity="0.42"/><path d="M115,74L140,75L120,69Z" fill="rgb(115, 13, 25)" fill-opacity="0.38"/><path d="M97,160L69,183L76,144Z" fill="rgb(220, 137, 69)" fill-opacity="0.32"/><path d="M164,185L140,170L158,139Z" fill="rgb(228, 187, 152)" fill-opacity="0.42"/><path d="M67,45L22,49L43,129Z" fill="rgb(168, 177, 170)" fill-opacity="0.71"/><path d="M85,66L88,52L93,82Z" fill="rgb(174, 126, 90)" fill-opacity="0.51"/><path d="M230,142L236,94L164,65Z" fill="rgb(124, 129, 137)" fill-opacity="0.59"/><path d="M108,90L93,76L85,103Z" fill="rgb(55, 29, 30)" fill-opacity="0.54"/><path d="M34,45L47,32L34,33Z" fill="rgb(16, 26, 51)" fill-opacity="0.44"/><path d="M69,121L44,149L43,131Z" fill="rgb(238, 223, 210)" fill-opacity="0.55"/><path d="M237,157L261,195L222,181Z" fill="rgb(35, 21, 27)" fill-opacity="0.47"/><path d="M66,12L69,117L71,66Z" fill="rgb(100, 96, 100)" fill-opacity="0.73"/><path d="M67,110L28,38L31,133Z" fill="rgb(169, 176, 170)" fill-opacity="0.41"/><path d="M137,145L181,129L140,98Z" fill="rgb(84, 51, 48)" fill-opacity="0.45"/><path d="M139,91L107,90L127,98Z" fill="rgb(108, 54, 51)" fill-opacity="0.43"/><path d="M99,22L101,31L109,6Z" fill="rgb(83, 45, 43)" fill-opacity="0.49"/><path d="M129,133L145,116L98,122Z" fill="rgb(233, 232, 235)" fill-opacity="0.34"/><path d="M242,64L276,57L240,48Z" fill="rgb(34, 9, 20)" fill-opacity="0.47"/><path d="M30,148L49,121L55,120Z" fill="rgb(126, 86, 65)" fill-opacity="0.47"/><path d="M190,112L202,118L178,112Z" fill="rgb(206, 158, 133)" fill-opacity="0.48"/><path d="M104,33L107,17L151,36Z" fill="rgb(254, 234, 222)" fill-opacity="0.50"/><path d="M178,20L158,33L184,65Z" fill="rgb(122, 128, 134)" fill-opacity="0.61"/><path d="M197,136L182,188L186,118Z" fill="rgb(199, 176, 163)" fill-opacity="0.59"/><path d="M255,7L234,-8L266,5Z" fill="rgb(181, 182, 173)" fill-opacity="0.53"/><path d="M74,29L112,49L130,37Z" fill="rgb(190, 142, 118)" fill-opacity="0.45"/><path d="M154,49L131,45L135,49Z" fill="rgb(107, 62, 70)" fill-opacity="0.46"/><path d="M152,82L143,110L136,90Z" fill="rgb(19, 16, 29)" fill-opacity="0.44"/><path d="M96,128L102,110L82,135Z" fill="rgb(162, 137, 130)" fill-opacity="0.48"/><path d="M162,83L148,78L162,60Z" fill="rgb(12, 0, 13)" fill-opacity="0.46"/><path d="M140,93L132,119L138,82Z" fill="rgb(149, 120, 116)" fill-opacity="0.60"/><path d="M154,55L128,72L137,48Z" fill="rgb(238, 202, 188)" fill-opacity="0.43"/><path d="M42,139L46,123L32,151Z" fill="rgb(106, 85, 77)" fill-opacity="0.44"/><path d="M164,50L175,132L184,97Z" fill="rgb(101, 79, 78)" fill-opacity="0.71"/><path d="M128,56L134,61L114,60Z" fill="rgb(114, 56, 56)" fill-opacity="0.45"/><path d="M87,148L74,125L77,154Z" fill="rgb(107, 59, 45)" fill-opacity="0.47"/><path d="M217,123L196,147L196,108Z" fill="rgb(62, 60, 74)" fill-opacity="0.47"/><path d="M228,206L231,133L207,157Z" fill="rgb(106, 117, 127)" fill-opacity="0.53"/><path d="M162,83L147,97L166,125Z" fill="rgb(51, 33, 38)" fill-opacity="0.66"/><path d="M181,155L155,139L180,119Z" fill="rgb(133, 83, 61)" fill-opacity="0.42"/><path d="M69,31L24,2L57,48Z" fill="rgb(162, 170, 165)" fill-opacity="0.54"/><path d="M62,111L82,91L79,143Z" fill="rgb(145, 97, 72)" fill-opacity="0.53"/><path d="M151,23L159,87L162,44Z" fill="rgb(17, 4, 15)" fill-opacity="0.47"/><path d="M-4,143L-7,164L29,204Z" fill="rgb(75, 79, 91)" fill-opacity="0.40"/><path d="M146,27L142,82L158,64Z" fill="rgb(178, 133, 126)" fill-opacity="0.36"/><path d="M252,39L246,51L264,39Z" fill="rgb(124, 128, 136)" fill-opacity="0.60"/><path d="M164,-6L134,-1L153,15Z" fill="rgb(172, 175, 163)" fill-opacity="0.59"/><path d="M88,18L99,44L103,25Z" fill="rgb(163, 112, 79)" fill-opacity="0.49"/><path d="M72,137L78,159L31,197Z" fill="rgb(223, 206, 189)" fill-opacity="0.52"/><path d="M251,-20L231,48L162,-1Z" fill="rgb(177, 183, 176)" fill-opacity="0.44"/><path d="M236,45L235,99L242,28Z" fill="rgb(130, 104, 87)" fill-opacity="0.52"/><path d="M136,116L152,158L144,110Z" fill="rgb(124, 86, 78)" fill-opacity="0.50"/><path d="M94,47L95,77L90,57Z" fill="rgb(15, 0, 18)" fill-opacity="0.34"/><path d="M30,45L47,31L48,49Z" fill="rgb(116, 125, 131)" fill-opacity="0.52"/><path d="M153,116L143,147L149,167Z" fill="rgb(131, 74, 47)" fill-opacity="0.47"/><path d="M147,88L151,114L154,118Z" fill="rgb(150, 122, 103)" fill-opacity="0.30"/><path d="M116,0L47,-28L81,21Z" fill="rgb(183, 188, 178)" fill-opacity="0.54"/><path d="M134,147L126,179L176,199Z" fill="rgb(255, 244, 208)" fill-opacity="0.28"/><path d="M198,111L188,36L164,78Z" fill="rgb(116, 120, 131)" fill-opacity="0.39"/><path d="M251,52L243,38L238,72Z" fill="rgb(40, 23, 36)" fill-opacity="0.71"/></svg>
