<svg xmlns="http://www.w3.org/2000/svg" viewBox="0 0 256 170.66666666666666" clip-path="url(#clip)"><defs><clipPath id="clip" clipPathUnits="objectBoundingBox"><rect x="0" y="0" width="256" height="170.66666666666666"/></clipPath></defs><rect x="0" y="0" width="256" height="170.66666666666666" fill="rgb(175, 196, 207)"/><path d="M190,134L152,31L46,112Z" fill="rgb(113, 77, 61)" fill-opacity="0.84"/><path d="M128,13L74,74L124,131Z" fill="rgb(182, 143, 114)" fill-opacity="0.95"/><path d="M139,131L178,77L148,50Z" fill="rgb(8, 0, 13)" fill-opacity="0.61"/><path d="M184,111L147,168L206,185Z" fill="rgb(190, 127, 78)" fill-opacity="0.56"/><path d="M101,61L130,29L109,178Z" fill="rgb(249, 205, 161)" fill-opacity="0.63"/><path d="M-14,166L122,109L214,255Z" fill="rgb(253, 217, 177)" fill-opacity="0.62"/><path d="M155,38L121,28L106,37Z" fill="rgb(87, 40, 29)" fill-opacity="0.50"/><path d="M87,90L105,82L103,120Z" fill="rgb(28, 0, 0)" fill-opacity="0.49"/><path d="M76,99L-82,-27L47,164Z" fill="rgb(147, 194, 220)" fill-opacity="0.83"/><path d="M66,122L99,40L102,125Z" fill="rgb(105, 58, 36)" fill-opacity="0.68"/><path d="M254,124L176,96L187,132Z" fill="rgb(140, 201, 235)" fill-opacity="0.57"/><path d="M132,34L105,62L144,44Z" fill="rgb(208, 153, 111)" fill-opacity="0.63"/><path d="M187,133L122,105L161,83Z" fill="rgb(9, 0, 5)" fill-opacity="0.44"/><path d="M76,77L71,104L101,67Z" fill="rgb(127, 74, 48)" fill-opacity="0.59"/><path d="M141,24L223,-115L173,77Z" fill="rgb(154, 191, 217)" fill-opacity="0.85"/><path d="M-174,4L150,-3L29,124Z" fill="rgb(130, 178, 213)" fill-opacity="0.44"/><path d="M177,130L127,119L137,194Z" fill="rgb(224, 190, 154)" fill-opacity="0.61"/><path d="M66,130L99,102L61,122Z" fill="rgb(57, 9, 7)" fill-opacity="0.37"/><path d="M96,197L120,170L121,147Z" fill="rgb(179, 122, 81)" fill-opacity="0.50"/><path d="M188,124L194,203L198,150Z" fill="rgb(93, 74, 84)" fill-opacity="0.58"/><path d="M84,194L76,136L117,108Z" fill="rgb(242, 218, 185)" fill-opacity="0.70"/><path d="M100,75L105,95L130,45Z" fill="rgb(255, 217, 177)" fill-opacity="0.47"/><path d="M142,101L93,92L148,85Z" fill="rgb(93, 46, 38)" fill-opacity="0.49"/><path d="M99,107L96,125L60,127Z" fill="rgb(155, 102, 63)" fill-opacity="0.50"/><path d="M52,211L56,131L-109,112Z" fill="rgb(208, 231, 239)" fill-opacity="0.71"/><path d="M156,180L171,146L172,184Z" fill="rgb(106, 51, 34)" fill-opacity="0.47"/><path d="M71,134L90,191L58,191Z" fill="rgb(245, 171, 83)" fill-opacity="0.38"/><path d="M202,175L513,219L150,-68Z" fill="rgb(166, 208, 233)" fill-opacity="0.62"/><path d="M164,69L154,95L151,39Z" fill="rgb(13, 5, 15)" fill-opacity="0.44"/><path d="M190,138L167,207L174,143Z" fill="rgb(255, 229, 164)" fill-opacity="0.45"/><path d="M82,137L121,125L145,134Z" fill="rgb(236, 227, 214)" fill-opacity="0.57"/><path d="M202,235L302,131L196,145Z" fill="rgb(191, 227, 240)" fill-opacity="0.69"/><path d="M91,68L97,75L113,30Z" fill="rgb(76, 28, 8)" fill-opacity="0.53"/><path d="M117,63L136,63L124,60Z" fill="rgb(98, 32, 42)" fill-opacity="0.50"/><path d="M88,95L84,89L78,103Z" fill="rgb(229, 153, 79)" fill-opacity="0.50"/><path d="M97,49L123,46L122,59Z" fill="rgb(158, 101, 60)" fill-opacity="0.30"/><path d="M107,46L124,34L140,48Z" fill="rgb(246, 203, 160)" fill-opacity="0.52"/><path d="M172,87L187,124L175,69Z" fill="rgb(144, 160, 177)" fill-opacity="0.68"/><path d="M182,129L191,136L165,129Z" fill="rgb(255, 245, 213)" fill-opacity="0.37"/><path d="M163,61L174,74L174,118Z" fill="rgb(120, 85, 79)" fill-opacity="0.45"/><path d="M106,92L127,106L103,130Z" fill="rgb(242, 213, 166)" fill-opacity="0.60"/><path d="M184,12L135,34L67,-9Z" fill="rgb(146, 185, 212)" fill-opacity="0.89"/><path d="M181,101L144,122L183,131Z" fill="rgb(73, 41, 39)" fill-opacity="0.46"/><path d="M100,54L84,59L109,33Z" fill="rgb(197, 151, 109)" fill-opacity="0.64"/><path d="M135,76L113,73L126,69Z" fill="rgb(126, 39, 38)" fill-opacity="0.58"/><path d="M164,131L118,161L188,150Z" fill="rgb(236, 206, 169)" fill-opacity="0.40"/><path d="M124,44L124,65L129,52Z" fill="rgb(252, 202, 170)" fill-opacity="0.52"/><path d="M149,68L151,87L111,94Z" fill="rgb(108, 67, 68)" fill-opacity="0.59"/><path d="M135,31L148,36L152,80Z" fill="rgb(106, 67, 64)" fill-opacity="0.45"/><path d="M122,124L153,122L120,111Z" fill="rgb(128, 95, 86)" fill-opacity="0.49"/><path d="M100,40L118,33L108,47Z" fill="rgb(110, 52, 23)" fill-opacity="0.44"/><path d="M93,82L79,121L97,101Z" fill="rgb(10, 0, 11)" fill-opacity="0.40"/><path d="M99,93L101,100L97,111Z" fill="rgb(255, 212, 119)" fill-opacity="0.40"/><path d="M148,170L123,142L119,185Z" fill="rgb(249, 219, 181)" fill-opacity="0.57"/><path d="M171,116L189,130L188,132Z" fill="rgb(63, 46, 55)" fill-opacity="0.66"/><path d="M150,118L142,137L160,131Z" fill="rgb(154, 118, 91)" fill-opacity="0.39"/><path d="M180,177L186,212L154,148Z" fill="rgb(46, 0, 10)" fill-opacity="0.21"/><path d="M116,37L127,39L107,50Z" fill="rgb(255, 221, 178)" fill-opacity="0.47"/><path d="M305,83L218,110L296,146Z" fill="rgb(137, 196, 231)" fill-opacity="0.58"/><path d="M177,109L172,98L178,93Z" fill="rgb(78, 46, 48)" fill-opacity="0.48"/><path d="M160,107L174,115L163,114Z" fill="rgb(181, 126, 80)" fill-opacity="0.52"/><path d="M150,64L150,73L129,70Z" fill="rgb(166, 112, 108)" fill-opacity="0.45"/><path d="M107,50L100,80L127,67Z" fill="rgb(251, 210, 174)" fill-opacity="0.50"/><path d="M202,147L182,120L179,106Z" fill="rgb(129, 191, 226)" fill-opacity="0.44"/><path d="M104,110L103,116L92,117Z" fill="rgb(4, 0, 11)" fill-opacity="0.44"/><path d="M91,-2L139,19L94,39Z" fill="rgb(154, 190, 214)" fill-opacity="0.63"/><path d="M113,155L98,173L104,199Z" fill="rgb(215, 176, 139)" fill-opacity="0.65"/><path d="M135,76L124,61L134,48Z" fill="rgb(91, 49, 58)" fill-opacity="0.45"/><path d="M78,174L82,159L59,181Z" fill="rgb(199, 126, 71)" fill-opacity="0.47"/><path d="M176,41L173,78L190,131Z" fill="rgb(159, 200, 225)" fill-opacity="0.50"/><path d="M187,153L172,157L176,240Z" fill="rgb(255, 210, 161)" fill-opacity="0.44"/><path d="M72,88L75,111L61,127Z" fill="rgb(154, 143, 144)" fill-opacity="0.60"/><path d="M-5,59L71,57L71,114Z" fill="rgb(168, 198, 215)" fill-opacity="0.51"/><path d="M149,129L146,117L156,115Z" fill="rgb(119, 85, 66)" fill-opacity="0.62"/><path d="M88,81L107,108L97,67Z" fill="rgb(87, 53, 38)" fill-opacity="0.51"/><path d="M121,71L131,84L113,74Z" fill="rgb(193, 115, 87)" fill-opacity="0.55"/><path d="M87,125L60,194L54,131Z" fill="rgb(242, 211, 170)" fill-opacity="0.53"/><path d="M151,86L140,98L161,124Z" fill="rgb(0, 3, 15)" fill-opacity="0.49"/><path d="M118,57L121,55L112,52Z" fill="rgb(52, 23, 39)" fill-opacity="0.47"/><path d="M115,102L125,108L130,102Z" fill="rgb(199, 139, 98)" fill-opacity="0.44"/><path d="M166,137L183,123L163,151Z" fill="rgb(208, 198, 178)" fill-opacity="0.51"/><path d="M138,65L136,59L147,64Z" fill="rgb(196, 145, 133)" fill-opacity="0.48"/><path d="M155,52L157,63L137,57Z" fill="rgb(48, 26, 32)" fill-opacity="0.47"/><path d="M174,128L184,119L149,120Z" fill="rgb(51, 23, 22)" fill-opacity="0.47"/><path d="M125,25L113,37L133,36Z" fill="rgb(108, 76, 68)" fill-opacity="0.52"/><path d="M70,114L10,81L-66,117Z" fill="rgb(122, 190, 222)" fill-opacity="0.49"/><path d="M121,100L105,122L105,95Z" fill="rgb(245, 213, 167)" fill-opacity="0.58"/><path d="M184,114L201,153L253,131Z" fill="rgb(150, 207, 233)" fill-opacity="0.61"/><path d="M79,87L79,74L74,81Z" fill="rgb(221, 173, 119)" fill-opacity="0.48"/><path d="M144,35L214,-18L176,56Z" fill="rgb(163, 195, 216)" fill-opacity="0.55"/><path d="M89,115L70,114L97,93Z" fill="rgb(52, 23, 27)" fill-opacity="0.40"/><path d="M135,74L125,68L141,66Z" fill="rgb(197, 135, 113)" fill-opacity="0.42"/><path d="M-34,129L56,133L73,91Z" fill="rgb(150, 209, 235)" fill-opacity="0.32"/><path d="M177,128L152,155L181,130Z" fill="rgb(223, 204, 177)" fill-opacity="0.58"/><path d="M96,62L96,101L97,92Z" fill="rgb(214, 156, 93)" fill-opacity="0.42"/><path d="M171,156L186,127L156,155Z" fill="rgb(200, 151, 102)" fill-opacity="0.43"/><path d="M109,89L130,81L99,77Z" fill="rgb(251, 211, 167)" fill-opacity="0.50"/><path d="M142,119L122,96L140,95Z" fill="rgb(88, 57, 57)" fill-opacity="0.73"/><path d="M125,28L151,41L148,48Z" fill="rgb(100, 50, 26)" fill-opacity="0.34"/><path d="M87,101L61,110L89,87Z" fill="rgb(185, 128, 89)" fill-opacity="0.35"/><path d="M82,94L88,84L82,104Z" fill="rgb(199, 134, 71)" fill-opacity="0.51"/></svg>
