<svg xmlns="http://www.w3.org/2000/svg" viewBox="0 0 256 170.66666666666666" clip-path="url(#clip)"><defs><clipPath id="clip" clipPathUnits="objectBoundingBox"><rect x="0" y="0" width="256" height="170.66666666666666"/></clipPath></defs><rect x="0" y="0" width="256" height="170.66666666666666" fill="rgb(166, 158, 146)"/><path d="M54,166L115,62L265,223Z" fill="rgb(249, 238, 226)" fill-opacity="0.63"/><path d="M-17,212L36,82L67,158Z" fill="rgb(76, 24, 0)" fill-opacity="0.52"/><path d="M173,90L55,88L75,-136Z" fill="rgb(56, 12, 0)" fill-opacity="0.45"/><path d="M145,-2L100,0L56,142Z" fill="rgb(47, 20, 17)" fill-opacity="0.56"/><path d="M67,138L98,67L237,146Z" fill="rgb(245, 242, 234)" fill-opacity="0.41"/><path d="M213,-3L191,13L211,11Z" fill="rgb(106, 24, 38)" fill-opacity="0.48"/><path d="M143,100L147,68L168,99Z" fill="rgb(30, 16, 19)" fill-opacity="0.51"/><path d="M120,40L115,135L145,68Z" fill="rgb(232, 223, 205)" fill-opacity="0.44"/><path d="M227,-63L404,153L178,137Z" fill="rgb(197, 211, 202)" fill-opacity="0.64"/><path d="M49,179L86,90L46,88Z" fill="rgb(140, 94, 64)" fill-opacity="0.63"/><path d="M71,42L34,136L32,12Z" fill="rgb(209, 171, 117)" fill-opacity="0.60"/><path d="M157,43L140,66L203,57Z" fill="rgb(69, 39, 46)" fill-opacity="0.52"/><path d="M153,60L149,95L142,95Z" fill="rgb(10, 4, 12)" fill-opacity="0.47"/><path d="M56,141L72,143L48,216Z" fill="rgb(207, 172, 141)" fill-opacity="0.46"/><path d="M122,86L113,91L106,77Z" fill="rgb(4, 5, 13)" fill-opacity="0.38"/><path d="M140,95L116,166L204,121Z" fill="rgb(227, 217, 206)" fill-opacity="0.76"/><path d="M99,80L78,80L111,61Z" fill="rgb(90, 55, 47)" fill-opacity="0.58"/><path d="M-8,161L56,109L36,190Z" fill="rgb(54, 34, 31)" fill-opacity="0.42"/><path d="M165,112L165,57L204,71Z" fill="rgb(179, 195, 186)" fill-opacity="0.61"/><path d="M131,42L172,-109L205,48Z" fill="rgb(173, 138, 125)" fill-opacity="0.80"/><path d="M93,13L91,-13L82,15Z" fill="rgb(13, 1, 5)" fill-opacity="0.52"/><path d="M192,11L204,36L183,71Z" fill="rgb(98, 71, 73)" fill-opacity="0.44"/><path d="M165,74L146,93L167,111Z" fill="rgb(112, 92, 81)" fill-opacity="0.45"/><path d="M148,141L78,102L98,75Z" fill="rgb(230, 233, 233)" fill-opacity="0.43"/><path d="M19,170L26,136L35,200Z" fill="rgb(15, 7, 17)" fill-opacity="0.50"/><path d="M40,77L9,123L54,-44Z" fill="rgb(221, 202, 158)" fill-opacity="0.68"/><path d="M231,162L80,297L185,149Z" fill="rgb(133, 80, 60)" fill-opacity="0.28"/><path d="M103,70L139,48L143,99Z" fill="rgb(189, 170, 147)" fill-opacity="0.55"/><path d="M174,32L138,36L160,-67Z" fill="rgb(204, 173, 156)" fill-opacity="0.56"/><path d="M199,22L191,34L206,26Z" fill="rgb(36, 16, 38)" fill-opacity="0.54"/><path d="M120,-27L101,75L133,24Z" fill="rgb(28, 18, 28)" fill-opacity="0.44"/><path d="M43,70L49,16L94,-15Z" fill="rgb(151, 109, 72)" fill-opacity="0.53"/><path d="M20,121L-12,149L18,155Z" fill="rgb(162, 126, 86)" fill-opacity="0.60"/><path d="M19,82L78,92L83,40Z" fill="rgb(215, 153, 87)" fill-opacity="0.23"/><path d="M52,129L45,164L64,110Z" fill="rgb(221, 182, 124)" fill-opacity="0.54"/><path d="M15,151L12,115L27,94Z" fill="rgb(255, 205, 121)" fill-opacity="0.35"/><path d="M223,193L341,91L234,125Z" fill="rgb(173, 183, 174)" fill-opacity="0.90"/><path d="M112,79L107,88L122,90Z" fill="rgb(24, 4, 0)" fill-opacity="0.30"/><path d="M140,89L148,75L124,32Z" fill="rgb(151, 125, 110)" fill-opacity="0.56"/><path d="M231,145L208,121L191,206Z" fill="rgb(175, 145, 131)" fill-opacity="0.54"/><path d="M52,43L56,80L64,49Z" fill="rgb(207, 173, 124)" fill-opacity="0.46"/><path d="M92,3L75,59L78,28Z" fill="rgb(56, 37, 37)" fill-opacity="0.59"/><path d="M155,70L163,97L157,86Z" fill="rgb(154, 150, 136)" fill-opacity="0.53"/><path d="M201,110L216,153L118,191Z" fill="rgb(216, 192, 172)" fill-opacity="0.49"/><path d="M59,28L61,-9L41,8Z" fill="rgb(237, 190, 117)" fill-opacity="0.42"/><path d="M86,25L101,-11L106,31Z" fill="rgb(141, 104, 74)" fill-opacity="0.49"/><path d="M144,0L135,31L130,-8Z" fill="rgb(144, 104, 98)" fill-opacity="0.52"/><path d="M102,58L85,90L122,56Z" fill="rgb(121, 90, 78)" fill-opacity="0.67"/><path d="M204,22L243,-42L270,54Z" fill="rgb(205, 216, 206)" fill-opacity="0.48"/><path d="M85,93L88,83L114,92Z" fill="rgb(192, 189, 184)" fill-opacity="0.56"/><path d="M84,9L69,62L71,3Z" fill="rgb(161, 123, 85)" fill-opacity="0.56"/><path d="M103,86L120,77L107,77Z" fill="rgb(216, 220, 209)" fill-opacity="0.58"/><path d="M52,152L54,117L66,97Z" fill="rgb(237, 193, 124)" fill-opacity="0.35"/><path d="M54,17L53,46L47,58Z" fill="rgb(97, 71, 67)" fill-opacity="0.49"/><path d="M3,-4L44,-4L5,100Z" fill="rgb(137, 151, 151)" fill-opacity="0.67"/><path d="M119,54L118,41L147,41Z" fill="rgb(146, 113, 100)" fill-opacity="0.50"/><path d="M81,50L95,71L99,32Z" fill="rgb(29, 15, 18)" fill-opacity="0.50"/><path d="M37,142L24,127L46,116Z" fill="rgb(150, 112, 81)" fill-opacity="0.48"/><path d="M119,86L127,63L141,97Z" fill="rgb(195, 193, 180)" fill-opacity="0.54"/><path d="M128,26L166,67L143,75Z" fill="rgb(87, 71, 76)" fill-opacity="0.33"/><path d="M201,178L231,188L226,146Z" fill="rgb(134, 109, 106)" fill-opacity="0.57"/><path d="M18,86L18,22L27,60Z" fill="rgb(184, 190, 174)" fill-opacity="0.66"/><path d="M86,141L68,225L61,154Z" fill="rgb(232, 226, 206)" fill-opacity="0.53"/><path d="M89,73L108,40L107,54Z" fill="rgb(33, 18, 22)" fill-opacity="0.50"/><path d="M88,77L71,123L54,149Z" fill="rgb(53, 20, 27)" fill-opacity="0.43"/><path d="M23,74L17,9L23,-16Z" fill="rgb(187, 201, 193)" fill-opacity="0.54"/><path d="M209,55L307,80L166,70Z" fill="rgb(185, 194, 184)" fill-opacity="0.91"/><path d="M21,157L-6,130L-40,148Z" fill="rgb(111, 90, 79)" fill-opacity="0.50"/><path d="M-10,76L33,98L20,121Z" fill="rgb(196, 184, 149)" fill-opacity="0.40"/><path d="M78,25L74,56L60,33Z" fill="rgb(160, 122, 83)" fill-opacity="0.51"/><path d="M38,141L30,161L39,119Z" fill="rgb(177, 132, 90)" fill-opacity="0.38"/><path d="M196,47L216,55L235,5Z" fill="rgb(189, 201, 192)" fill-opacity="0.59"/><path d="M187,64L137,50L191,56Z" fill="rgb(62, 42, 49)" fill-opacity="0.45"/><path d="M30,95L43,65L41,85Z" fill="rgb(110, 74, 62)" fill-opacity="0.40"/><path d="M151,45L185,58L202,29Z" fill="rgb(148, 111, 101)" fill-opacity="0.55"/><path d="M109,84L121,68L85,89Z" fill="rgb(216, 213, 193)" fill-opacity="0.39"/><path d="M179,63L201,59L199,47Z" fill="rgb(88, 60, 66)" fill-opacity="0.30"/><path d="M165,104L107,112L189,113Z" fill="rgb(224, 228, 227)" fill-opacity="0.59"/><path d="M116,16L120,26L104,54Z" fill="rgb(11, 8, 13)" fill-opacity="0.46"/><path d="M42,45L37,-8L52,-10Z" fill="rgb(232, 224, 196)" fill-opacity="0.36"/><path d="M6,48L-2,26L2,107Z" fill="rgb(163, 182, 179)" fill-opacity="0.60"/><path d="M77,108L104,79L84,140Z" fill="rgb(232, 230, 224)" fill-opacity="0.53"/><path d="M59,67L48,55L39,121Z" fill="rgb(212, 180, 130)" fill-opacity="0.51"/><path d="M221,162L213,127L226,144Z" fill="rgb(161, 138, 124)" fill-opacity="0.58"/><path d="M244,105L243,183L225,150Z" fill="rgb(181, 189, 179)" fill-opacity="0.64"/><path d="M195,13L210,-2L214,7Z" fill="rgb(120, 69, 75)" fill-opacity="0.61"/><path d="M29,31L39,16L34,45Z" fill="rgb(192, 196, 177)" fill-opacity="0.51"/><path d="M205,102L169,109L162,55Z" fill="rgb(170, 181, 171)" fill-opacity="0.59"/><path d="M196,58L198,37L201,52Z" fill="rgb(110, 94, 94)" fill-opacity="0.46"/><path d="M127,-9L104,16L102,-5Z" fill="rgb(128, 95, 76)" fill-opacity="0.43"/><path d="M53,134L33,165L48,98Z" fill="rgb(41, 25, 38)" fill-opacity="0.28"/><path d="M205,5L211,9L202,8Z" fill="rgb(46, 3, 23)" fill-opacity="0.47"/><path d="M19,128L40,86L35,115Z" fill="rgb(104, 75, 66)" fill-opacity="0.60"/><path d="M161,103L166,106L161,62Z" fill="rgb(96, 74, 63)" fill-opacity="0.77"/><path d="M160,51L163,69L134,44Z" fill="rgb(76, 58, 59)" fill-opacity="0.57"/><path d="M69,68L69,75L72,58Z" fill="rgb(40, 28, 41)" fill-opacity="0.54"/><path d="M85,42L95,10L79,48Z" fill="rgb(240, 188, 115)" fill-opacity="0.43"/><path d="M79,136L63,147L76,112Z" fill="rgb(210, 162, 121)" fill-opacity="0.34"/><path d="M155,101L157,89L141,93Z" fill="rgb(62, 44, 41)" fill-opacity="0.58"/><path d="M3,-22L4,65L-74,-37Z" fill="rgb(171, 184, 176)" fill-opacity="0.73"/><path d="M176,53L147,48L146,64Z" fill="rgb(73, 56, 60)" fill-opacity="0.48"/></svg>
