<svg xmlns="http://www.w3.org/2000/svg" viewBox="0 0 205.51394422310756 256" clip-path="url(#clip)"><defs><clipPath id="clip" clipPathUnits="objectBoundingBox"><rect x="0" y="0" width="205.51394422310756" height="256"/></clipPath></defs><rect x="0" y="0" width="205.51394422310756" height="256" fill="rgb(150, 149, 144)"/><path d="M247,66L29,140L24,-24Z" fill="rgb(255, 255, 255)" fill-opacity="0.58"/><path d="M67,147L66,192L156,150Z" fill="rgb(253, 252, 249)" fill-opacity="0.37"/><path d="M186,131L112,-159L61,133Z" fill="rgb(226, 224, 221)" fill-opacity="0.63"/><path d="M15,96L23,76L26,150Z" fill="rgb(0, 0, 0)" fill-opacity="0.51"/><path d="M15,71L27,84L23,30Z" fill="rgb(51, 50, 46)" fill-opacity="0.69"/><path d="M59,297L70,203L52,192Z" fill="rgb(66, 65, 62)" fill-opacity="0.47"/><path d="M15,175L-227,236L17,-1Z" fill="rgb(212, 211, 207)" fill-opacity="0.76"/><path d="M58,135L188,132L146,155Z" fill="rgb(0, 0, 0)" fill-opacity="0.42"/><path d="M133,147L15,145L16,127Z" fill="rgb(44, 43, 39)" fill-opacity="0.61"/><path d="M-25,233L202,439L218,190Z" fill="rgb(111, 110, 105)" fill-opacity="0.66"/><path d="M160,119L213,168L197,-61Z" fill="rgb(156, 155, 151)" fill-opacity="0.71"/><path d="M150,171L146,128L146,208Z" fill="rgb(0, 0, 0)" fill-opacity="0.53"/><path d="M53,206L53,146L-63,144Z" fill="rgb(191, 190, 186)" fill-opacity="0.79"/><path d="M144,216L147,159L151,230Z" fill="rgb(7, 7, 5)" fill-opacity="0.50"/><path d="M62,184L66,223L66,158Z" fill="rgb(30, 30, 27)" fill-opacity="0.76"/><path d="M27,48L18,95L15,51Z" fill="rgb(56, 55, 51)" fill-opacity="0.63"/><path d="M170,150L179,142L154,137Z" fill="rgb(68, 67, 63)" fill-opacity="0.56"/><path d="M45,146L39,132L153,134Z" fill="rgb(61, 60, 56)" fill-opacity="0.79"/><path d="M28,42L20,60L14,40Z" fill="rgb(50, 49, 45)" fill-opacity="0.50"/><path d="M149,146L149,191L175,148Z" fill="rgb(162, 161, 157)" fill-opacity="0.76"/><path d="M187,121L139,58L175,-6Z" fill="rgb(194, 193, 189)" fill-opacity="0.58"/><path d="M57,221L65,208L61,228Z" fill="rgb(8, 9, 6)" fill-opacity="0.60"/><path d="M136,141L135,190L65,193Z" fill="rgb(182, 181, 177)" fill-opacity="0.63"/><path d="M15,130L18,98L25,123Z" fill="rgb(61, 59, 55)" fill-opacity="0.62"/><path d="M24,69L26,113L24,154Z" fill="rgb(55, 54, 49)" fill-opacity="0.77"/><path d="M122,132L127,148L175,132Z" fill="rgb(57, 56, 52)" fill-opacity="0.72"/><path d="M126,144L106,149L138,152Z" fill="rgb(192, 191, 187)" fill-opacity="0.59"/><path d="M19,0L74,43L9,39Z" fill="rgb(216, 215, 211)" fill-opacity="0.73"/><path d="M-116,112L40,216L53,190Z" fill="rgb(168, 167, 163)" fill-opacity="0.71"/><path d="M63,197L58,223L57,163Z" fill="rgb(181, 180, 176)" fill-opacity="0.66"/><path d="M117,6L54,133L143,132Z" fill="rgb(228, 228, 226)" fill-opacity="0.55"/><path d="M-8,16L196,32L-33,-189Z" fill="rgb(182, 181, 176)" fill-opacity="0.40"/><path d="M25,46L117,7L53,132Z" fill="rgb(248, 246, 242)" fill-opacity="0.26"/><path d="M63,193L70,213L62,213Z" fill="rgb(2, 2, 0)" fill-opacity="0.38"/><path d="M149,132L179,111L151,72Z" fill="rgb(196, 196, 192)" fill-opacity="0.56"/><path d="M89,147L152,153L139,147Z" fill="rgb(204, 203, 199)" fill-opacity="0.53"/><path d="M53,175L53,149L1,143Z" fill="rgb(206, 205, 201)" fill-opacity="0.63"/><path d="M208,133L148,213L214,207Z" fill="rgb(139, 138, 134)" fill-opacity="0.74"/><path d="M44,117L23,141L28,124Z" fill="rgb(205, 203, 198)" fill-opacity="0.41"/><path d="M26,42L23,39L26,73Z" fill="rgb(29, 28, 24)" fill-opacity="0.58"/><path d="M27,66L27,125L26,99Z" fill="rgb(253, 252, 247)" fill-opacity="0.70"/><path d="M56,143L62,153L58,164Z" fill="rgb(238, 237, 235)" fill-opacity="0.42"/><path d="M171,28L191,42L148,28Z" fill="rgb(203, 203, 198)" fill-opacity="0.53"/><path d="M64,214L147,198L79,252Z" fill="rgb(139, 138, 133)" fill-opacity="0.71"/><path d="M141,197L138,162L137,214Z" fill="rgb(42, 41, 38)" fill-opacity="0.41"/><path d="M140,166L140,141L135,160Z" fill="rgb(31, 30, 26)" fill-opacity="0.39"/><path d="M185,126L279,-8L185,41Z" fill="rgb(154, 153, 148)" fill-opacity="0.85"/><path d="M217,-17L183,0L203,39Z" fill="rgb(112, 112, 107)" fill-opacity="0.36"/><path d="M166,138L176,150L175,130Z" fill="rgb(70, 69, 64)" fill-opacity="0.51"/><path d="M39,11L97,12L55,94Z" fill="rgb(231, 229, 224)" fill-opacity="0.33"/><path d="M62,129L25,112L29,133Z" fill="rgb(218, 216, 210)" fill-opacity="0.48"/><path d="M26,83L16,68L16,90Z" fill="rgb(47, 45, 42)" fill-opacity="0.54"/><path d="M30,217L39,323L-67,192Z" fill="rgb(118, 117, 112)" fill-opacity="0.53"/><path d="M67,146L16,146L16,127Z" fill="rgb(83, 81, 77)" fill-opacity="0.64"/><path d="M147,211L139,206L151,240Z" fill="rgb(74, 73, 70)" fill-opacity="0.51"/><path d="M15,173L14,136L32,167Z" fill="rgb(198, 197, 193)" fill-opacity="0.41"/><path d="M177,-12L208,38L161,20Z" fill="rgb(150, 149, 145)" fill-opacity="0.42"/><path d="M57,184L52,154L57,144Z" fill="rgb(34, 33, 29)" fill-opacity="0.46"/><path d="M26,72L27,140L31,6Z" fill="rgb(213, 212, 208)" fill-opacity="0.98"/><path d="M64,142L53,138L53,150Z" fill="rgb(75, 74, 70)" fill-opacity="0.53"/><path d="M63,173L67,151L63,144Z" fill="rgb(0, 0, 0)" fill-opacity="0.45"/><path d="M63,148L63,223L66,177Z" fill="rgb(20, 20, 18)" fill-opacity="0.61"/><path d="M27,104L25,79L16,104Z" fill="rgb(40, 38, 33)" fill-opacity="0.44"/><path d="M64,198L61,144L56,159Z" fill="rgb(223, 222, 219)" fill-opacity="0.37"/><path d="M16,155L-10,59L16,27Z" fill="rgb(207, 206, 202)" fill-opacity="0.93"/><path d="M165,110L179,132L143,132Z" fill="rgb(183, 183, 179)" fill-opacity="0.53"/><path d="M148,201L149,219L142,209Z" fill="rgb(23, 22, 20)" fill-opacity="0.50"/><path d="M60,139L56,133L115,133Z" fill="rgb(37, 35, 30)" fill-opacity="0.54"/><path d="M112,133L26,119L26,32Z" fill="rgb(218, 217, 214)" fill-opacity="1.00"/><path d="M156,29L175,12L101,-25Z" fill="rgb(175, 175, 171)" fill-opacity="0.68"/><path d="M91,22L97,97L162,47Z" fill="rgb(237, 237, 234)" fill-opacity="0.44"/><path d="M57,192L52,198L55,175Z" fill="rgb(56, 55, 52)" fill-opacity="0.51"/><path d="M137,133L114,137L125,149Z" fill="rgb(67, 66, 62)" fill-opacity="0.46"/><path d="M126,147L65,151L68,175Z" fill="rgb(226, 225, 221)" fill-opacity="0.29"/><path d="M107,147L110,148L91,148Z" fill="rgb(231, 230, 226)" fill-opacity="0.53"/><path d="M155,320L207,165L295,192Z" fill="rgb(35, 33, 32)" fill-opacity="0.10"/><path d="M53,207L54,170L57,204Z" fill="rgb(77, 77, 72)" fill-opacity="0.60"/><path d="M66,206L66,161L137,210Z" fill="rgb(175, 175, 171)" fill-opacity="0.35"/><path d="M15,110L26,94L26,146Z" fill="rgb(62, 61, 57)" fill-opacity="0.58"/><path d="M-57,214L54,210L67,249Z" fill="rgb(135, 134, 129)" fill-opacity="0.54"/><path d="M187,75L181,18L160,84Z" fill="rgb(186, 186, 181)" fill-opacity="0.52"/><path d="M147,228L149,212L152,226Z" fill="rgb(3, 2, 1)" fill-opacity="0.43"/><path d="M156,147L74,147L49,137Z" fill="rgb(74, 73, 69)" fill-opacity="0.80"/><path d="M53,194L-5,196L52,213Z" fill="rgb(162, 161, 157)" fill-opacity="0.54"/><path d="M91,147L133,148L69,150Z" fill="rgb(215, 214, 210)" fill-opacity="0.54"/><path d="M16,101L27,135L16,129Z" fill="rgb(70, 70, 65)" fill-opacity="0.45"/><path d="M161,96L112,97L138,131Z" fill="rgb(211, 210, 207)" fill-opacity="0.59"/><path d="M227,97L184,183L175,135Z" fill="rgb(149, 148, 144)" fill-opacity="0.78"/><path d="M177,134L164,150L156,132Z" fill="rgb(71, 70, 65)" fill-opacity="0.48"/><path d="M57,213L63,185L63,210Z" fill="rgb(171, 171, 167)" fill-opacity="0.51"/><path d="M140,147L139,196L136,176Z" fill="rgb(78, 77, 73)" fill-opacity="0.49"/><path d="M139,149L146,147L145,184Z" fill="rgb(181, 180, 176)" fill-opacity="0.60"/><path d="M54,-2L43,-71L-11,29Z" fill="rgb(180, 179, 175)" fill-opacity="0.58"/><path d="M249,247L-7,248L8,400Z" fill="rgb(106, 105, 101)" fill-opacity="0.43"/><path d="M16,46L16,66L26,42Z" fill="rgb(62, 61, 57)" fill-opacity="0.60"/><path d="M100,26L123,64L140,29Z" fill="rgb(235, 234, 231)" fill-opacity="0.55"/><path d="M182,28L187,37L166,45Z" fill="rgb(182, 181, 176)" fill-opacity="0.59"/><path d="M149,193L150,212L183,209Z" fill="rgb(146, 145, 140)" fill-opacity="0.69"/><path d="M16,109L15,108L15,134Z" fill="rgb(213, 212, 208)" fill-opacity="0.66"/><path d="M16,40L26,47L26,133Z" fill="rgb(59, 58, 54)" fill-opacity="0.83"/><path d="M17,40L61,22L20,17Z" fill="rgb(211, 210, 206)" fill-opacity="0.70"/></svg>
