<svg xmlns="http://www.w3.org/2000/svg" viewBox="0 0 205.1068931068931 256" clip-path="url(#clip)"><defs><clipPath id="clip" clipPathUnits="objectBoundingBox"><rect x="0" y="0" width="205.1068931068931" height="256"/></clipPath></defs><rect x="0" y="0" width="205.1068931068931" height="256" fill="rgb(238, 238, 238)"/><path d="M60,45L163,102L67,232Z" fill="rgb(98, 91, 63)" fill-opacity="0.59"/><path d="M133,51L126,120L100,44Z" fill="rgb(45, 37, 1)" fill-opacity="0.45"/><path d="M120,90L111,221L149,192Z" fill="rgb(42, 35, 0)" fill-opacity="0.34"/><path d="M77,25L98,72L112,7Z" fill="rgb(113, 113, 114)" fill-opacity="0.55"/><path d="M92,213L97,60L116,169Z" fill="rgb(216, 216, 221)" fill-opacity="0.75"/><path d="M141,180L136,60L263,235Z" fill="rgb(238, 238, 238)" fill-opacity="0.96"/><path d="M70,116L65,133L60,56Z" fill="rgb(85, 65, 30)" fill-opacity="0.64"/><path d="M-19,108L83,53L15,-46Z" fill="rgb(244, 244, 244)" fill-opacity="0.81"/><path d="M75,79L98,102L68,212Z" fill="rgb(112, 96, 63)" fill-opacity="0.68"/><path d="M64,202L67,230L92,213Z" fill="rgb(255, 255, 255)" fill-opacity="0.49"/><path d="M118,48L97,-1L169,87Z" fill="rgb(238, 238, 237)" fill-opacity="0.91"/><path d="M134,62L104,93L131,197Z" fill="rgb(92, 94, 67)" fill-opacity="0.57"/><path d="M119,69L83,44L85,81Z" fill="rgb(196, 195, 194)" fill-opacity="0.90"/><path d="M131,193L137,201L143,195Z" fill="rgb(73, 54, 25)" fill-opacity="0.49"/><path d="M112,205L68,123L62,209Z" fill="rgb(120, 107, 79)" fill-opacity="0.35"/><path d="M115,49L89,34L81,54Z" fill="rgb(102, 101, 98)" fill-opacity="0.50"/><path d="M79,28L86,37L86,27Z" fill="rgb(0, 0, 0)" fill-opacity="0.59"/><path d="M133,204L93,152L101,327Z" fill="rgb(212, 211, 211)" fill-opacity="0.65"/><path d="M89,208L62,200L95,117Z" fill="rgb(126, 114, 89)" fill-opacity="0.74"/><path d="M117,199L118,186L144,199Z" fill="rgb(101, 87, 61)" fill-opacity="0.42"/><path d="M125,140L122,97L109,138Z" fill="rgb(125, 128, 108)" fill-opacity="0.62"/><path d="M126,196L119,215L142,202Z" fill="rgb(249, 251, 252)" fill-opacity="0.51"/><path d="M148,205L150,181L139,182Z" fill="rgb(242, 242, 244)" fill-opacity="0.65"/><path d="M67,67L83,52L89,56Z" fill="rgb(108, 105, 96)" fill-opacity="0.51"/><path d="M121,198L121,188L114,153Z" fill="rgb(70, 64, 50)" fill-opacity="0.48"/><path d="M3,289L51,204L95,209Z" fill="rgb(237, 237, 237)" fill-opacity="1.00"/><path d="M94,111L109,95L107,48Z" fill="rgb(206, 207, 213)" fill-opacity="0.58"/><path d="M65,144L68,101L65,78Z" fill="rgb(54, 36, 9)" fill-opacity="0.62"/><path d="M57,73L75,89L74,72Z" fill="rgb(114, 100, 68)" fill-opacity="0.57"/><path d="M116,154L109,128L110,78Z" fill="rgb(46, 62, 40)" fill-opacity="0.52"/><path d="M123,64L133,103L108,102Z" fill="rgb(79, 72, 42)" fill-opacity="0.49"/><path d="M80,22L105,50L81,10Z" fill="rgb(155, 154, 155)" fill-opacity="0.52"/><path d="M107,85L92,99L108,107Z" fill="rgb(188, 189, 192)" fill-opacity="0.54"/><path d="M106,76L77,62L109,57Z" fill="rgb(253, 255, 255)" fill-opacity="0.37"/><path d="M141,133L138,110L113,159Z" fill="rgb(106, 109, 78)" fill-opacity="0.52"/><path d="M110,124L94,148L112,177Z" fill="rgb(243, 246, 249)" fill-opacity="0.50"/><path d="M67,88L66,112L61,104Z" fill="rgb(67, 43, 0)" fill-opacity="0.49"/><path d="M102,34L110,50L140,52Z" fill="rgb(243, 243, 242)" fill-opacity="0.49"/><path d="M119,147L130,133L132,157Z" fill="rgb(47, 66, 38)" fill-opacity="0.47"/><path d="M113,158L111,134L135,158Z" fill="rgb(77, 96, 72)" fill-opacity="0.59"/><path d="M76,81L84,88L80,125Z" fill="rgb(94, 78, 50)" fill-opacity="0.59"/><path d="M116,140L127,138L140,123Z" fill="rgb(157, 152, 131)" fill-opacity="0.47"/><path d="M87,33L79,35L79,29Z" fill="rgb(2, 0, 0)" fill-opacity="0.56"/><path d="M67,91L69,112L75,83Z" fill="rgb(219, 217, 209)" fill-opacity="0.62"/><path d="M131,112L128,95L132,107Z" fill="rgb(48, 26, 0)" fill-opacity="0.53"/><path d="M131,139L131,124L140,153Z" fill="rgb(195, 183, 164)" fill-opacity="0.46"/><path d="M113,50L122,69L91,34Z" fill="rgb(116, 110, 94)" fill-opacity="0.48"/><path d="M108,27L105,35L102,28Z" fill="rgb(46, 45, 46)" fill-opacity="0.49"/><path d="M118,193L140,194L142,174Z" fill="rgb(156, 141, 119)" fill-opacity="0.62"/><path d="M109,38L103,-6L170,97Z" fill="rgb(237, 237, 237)" fill-opacity="0.89"/><path d="M188,89L128,40L134,76Z" fill="rgb(238, 238, 238)" fill-opacity="0.96"/><path d="M82,59L83,51L72,65Z" fill="rgb(51, 44, 29)" fill-opacity="0.48"/><path d="M71,28L82,26L92,18Z" fill="rgb(243, 243, 243)" fill-opacity="0.52"/><path d="M99,222L91,224L92,192Z" fill="rgb(188, 186, 183)" fill-opacity="0.65"/><path d="M67,72L69,81L64,84Z" fill="rgb(68, 49, 16)" fill-opacity="0.49"/><path d="M96,173L119,188L104,93Z" fill="rgb(222, 224, 229)" fill-opacity="0.29"/><path d="M136,87L124,47L134,114Z" fill="rgb(148, 140, 113)" fill-opacity="0.72"/><path d="M113,104L126,101L113,108Z" fill="rgb(200, 184, 171)" fill-opacity="0.47"/><path d="M85,47L68,2L46,68Z" fill="rgb(247, 247, 247)" fill-opacity="0.52"/><path d="M111,88L120,85L112,92Z" fill="rgb(190, 164, 148)" fill-opacity="0.52"/><path d="M143,174L117,171L117,156Z" fill="rgb(184, 167, 143)" fill-opacity="0.64"/><path d="M63,85L63,77L60,108Z" fill="rgb(232, 225, 209)" fill-opacity="0.52"/><path d="M97,54L91,77L84,54Z" fill="rgb(246, 247, 252)" fill-opacity="0.53"/><path d="M96,20L82,13L112,7Z" fill="rgb(215, 216, 219)" fill-opacity="0.56"/><path d="M135,198L125,234L129,198Z" fill="rgb(240, 241, 241)" fill-opacity="0.71"/><path d="M112,66L96,70L105,50Z" fill="rgb(224, 224, 227)" fill-opacity="0.52"/><path d="M121,96L112,95L111,101Z" fill="rgb(185, 171, 160)" fill-opacity="0.46"/><path d="M129,110L126,105L110,108Z" fill="rgb(42, 54, 20)" fill-opacity="0.44"/><path d="M115,55L130,60L125,50Z" fill="rgb(166, 165, 150)" fill-opacity="0.59"/><path d="M89,11L80,18L87,16Z" fill="rgb(102, 103, 105)" fill-opacity="0.45"/><path d="M133,170L127,93L139,165Z" fill="rgb(147, 134, 105)" fill-opacity="0.72"/><path d="M65,66L62,68L64,89Z" fill="rgb(94, 71, 28)" fill-opacity="0.53"/><path d="M78,63L92,42L81,50Z" fill="rgb(76, 75, 68)" fill-opacity="0.51"/><path d="M63,63L73,61L61,69Z" fill="rgb(77, 64, 41)" fill-opacity="0.49"/><path d="M132,167L122,157L143,164Z" fill="rgb(198, 183, 168)" fill-opacity="0.41"/><path d="M132,121L132,128L135,129Z" fill="rgb(34, 18, 0)" fill-opacity="0.49"/><path d="M74,94L68,109L67,124Z" fill="rgb(178, 174, 151)" fill-opacity="0.48"/><path d="M135,268L58,276L107,229Z" fill="rgb(236, 236, 236)" fill-opacity="0.72"/><path d="M103,47L111,48L105,46Z" fill="rgb(39, 24, 0)" fill-opacity="0.50"/><path d="M103,36L101,41L104,45Z" fill="rgb(250, 250, 250)" fill-opacity="0.48"/><path d="M111,67L125,85L114,77Z" fill="rgb(67, 68, 47)" fill-opacity="0.55"/><path d="M113,72L95,103L88,70Z" fill="rgb(185, 186, 189)" fill-opacity="0.56"/><path d="M98,61L95,79L95,53Z" fill="rgb(125, 122, 122)" fill-opacity="0.45"/><path d="M136,92L138,69L138,110Z" fill="rgb(249, 249, 247)" fill-opacity="0.62"/><path d="M-184,-62L65,167L65,135Z" fill="rgb(243, 243, 243)" fill-opacity="0.76"/><path d="M-162,169L65,144L58,48Z" fill="rgb(244, 244, 244)" fill-opacity="0.68"/><path d="M87,28L87,8L84,24Z" fill="rgb(197, 198, 200)" fill-opacity="0.50"/><path d="M113,82L119,91L116,62Z" fill="rgb(147, 136, 112)" fill-opacity="0.53"/><path d="M138,160L142,197L136,166Z" fill="rgb(115, 111, 98)" fill-opacity="0.62"/><path d="M137,136L133,136L138,131Z" fill="rgb(69, 54, 44)" fill-opacity="0.48"/><path d="M126,125L123,131L112,128Z" fill="rgb(209, 196, 186)" fill-opacity="0.39"/><path d="M77,61L60,82L59,78Z" fill="rgb(140, 130, 106)" fill-opacity="0.49"/><path d="M126,102L126,96L108,101Z" fill="rgb(35, 50, 19)" fill-opacity="0.43"/><path d="M26,55L83,55L87,34Z" fill="rgb(242, 243, 242)" fill-opacity="0.45"/><path d="M138,163L151,207L137,139Z" fill="rgb(239, 240, 243)" fill-opacity="0.56"/><path d="M87,88L91,75L68,72Z" fill="rgb(150, 145, 124)" fill-opacity="0.60"/><path d="M118,135L116,136L147,139Z" fill="rgb(200, 196, 185)" fill-opacity="0.57"/><path d="M118,42L111,47L122,51Z" fill="rgb(254, 255, 255)" fill-opacity="0.52"/><path d="M101,45L103,34L117,26Z" fill="rgb(221, 221, 220)" fill-opacity="0.77"/><path d="M63,187L76,199L64,204Z" fill="rgb(151, 143, 124)" fill-opacity="0.53"/><path d="M121,71L126,56L119,66Z" fill="rgb(111, 99, 70)" fill-opacity="0.47"/></svg>
