<svg xmlns="http://www.w3.org/2000/svg" viewBox="0 0 256 254.8" clip-path="url(#clip)"><defs><clipPath id="clip" clipPathUnits="objectBoundingBox"><rect x="0" y="0" width="256" height="254.8"/></clipPath></defs><rect x="0" y="0" width="256" height="254.8" fill="rgb(241, 241, 241)"/><path d="M171,640L188,26L16,44Z" fill="rgb(46, 15, 0)" fill-opacity="0.62"/><path d="M243,314L47,245L223,206Z" fill="rgb(224, 225, 225)" fill-opacity="0.98"/><path d="M43,187L216,212L237,141Z" fill="rgb(61, 30, 22)" fill-opacity="0.64"/><path d="M230,194L183,105L228,143Z" fill="rgb(68, 34, 21)" fill-opacity="0.51"/><path d="M61,129L54,175L85,158Z" fill="rgb(187, 197, 208)" fill-opacity="0.48"/><path d="M177,109L159,126L225,151Z" fill="rgb(229, 228, 225)" fill-opacity="0.78"/><path d="M-19,213L35,110L14,-13Z" fill="rgb(247, 247, 247)" fill-opacity="0.97"/><path d="M83,181L51,169L58,243Z" fill="rgb(53, 22, 18)" fill-opacity="0.46"/><path d="M135,239L254,166L220,216Z" fill="rgb(207, 208, 209)" fill-opacity="0.73"/><path d="M185,176L180,142L208,163Z" fill="rgb(68, 39, 31)" fill-opacity="0.67"/><path d="M67,39L181,29L153,48Z" fill="rgb(51, 29, 18)" fill-opacity="0.75"/><path d="M22,46L109,36L63,56Z" fill="rgb(29, 10, 2)" fill-opacity="0.74"/><path d="M318,250L220,80L237,201Z" fill="rgb(239, 239, 239)" fill-opacity="0.98"/><path d="M159,126L164,113L202,153Z" fill="rgb(224, 228, 227)" fill-opacity="0.49"/><path d="M86,119L150,229L73,177Z" fill="rgb(65, 53, 52)" fill-opacity="0.50"/><path d="M169,132L106,134L134,81Z" fill="rgb(94, 74, 64)" fill-opacity="1.00"/><path d="M84,128L49,135L53,160Z" fill="rgb(174, 174, 178)" fill-opacity="0.62"/><path d="M186,118L176,76L204,129Z" fill="rgb(57, 24, 0)" fill-opacity="0.40"/><path d="M47,217L216,176L190,215Z" fill="rgb(63, 53, 58)" fill-opacity="0.37"/><path d="M88,219L29,234L180,312Z" fill="rgb(223, 232, 237)" fill-opacity="0.34"/><path d="M186,96L183,0L250,12Z" fill="rgb(243, 242, 242)" fill-opacity="0.97"/><path d="M78,168L177,134L162,217Z" fill="rgb(63, 45, 41)" fill-opacity="0.63"/><path d="M104,125L106,103L34,109Z" fill="rgb(82, 48, 25)" fill-opacity="0.58"/><path d="M171,202L221,186L155,232Z" fill="rgb(142, 150, 153)" fill-opacity="0.51"/><path d="M191,120L214,130L231,156Z" fill="rgb(73, 47, 35)" fill-opacity="0.70"/><path d="M106,190L96,205L79,192Z" fill="rgb(169, 139, 103)" fill-opacity="0.68"/><path d="M92,130L81,133L87,145Z" fill="rgb(175, 186, 193)" fill-opacity="0.40"/><path d="M84,102L113,123L42,135Z" fill="rgb(90, 62, 46)" fill-opacity="0.74"/><path d="M185,115L193,153L170,131Z" fill="rgb(235, 235, 232)" fill-opacity="0.63"/><path d="M117,165L149,119L155,161Z" fill="rgb(63, 58, 58)" fill-opacity="0.78"/><path d="M65,190L61,231L50,189Z" fill="rgb(62, 35, 31)" fill-opacity="0.46"/><path d="M174,62L184,87L181,42Z" fill="rgb(94, 57, 34)" fill-opacity="0.59"/><path d="M51,63L164,60L136,39Z" fill="rgb(159, 122, 92)" fill-opacity="0.59"/><path d="M24,48L195,109L39,134Z" fill="rgb(121, 79, 49)" fill-opacity="0.46"/><path d="M127,64L118,73L99,71Z" fill="rgb(48, 31, 10)" fill-opacity="0.52"/><path d="M49,183L45,129L55,162Z" fill="rgb(61, 36, 26)" fill-opacity="0.50"/><path d="M96,155L106,126L137,143Z" fill="rgb(140, 152, 163)" fill-opacity="0.42"/><path d="M80,208L74,195L85,193Z" fill="rgb(190, 155, 109)" fill-opacity="0.48"/><path d="M81,145L84,163L60,152Z" fill="rgb(170, 171, 171)" fill-opacity="0.48"/><path d="M108,163L108,144L91,119Z" fill="rgb(172, 179, 185)" fill-opacity="0.36"/><path d="M66,238L48,204L55,245Z" fill="rgb(195, 194, 194)" fill-opacity="0.57"/><path d="M145,130L165,130L163,144Z" fill="rgb(135, 141, 151)" fill-opacity="0.51"/><path d="M38,116L24,99L32,157Z" fill="rgb(248, 248, 248)" fill-opacity="0.40"/><path d="M124,38L181,27L185,41Z" fill="rgb(34, 11, 2)" fill-opacity="0.47"/><path d="M79,145L77,143L45,148Z" fill="rgb(229, 227, 227)" fill-opacity="0.62"/><path d="M196,121L122,88L171,52Z" fill="rgb(111, 76, 51)" fill-opacity="0.52"/><path d="M181,112L204,135L156,116Z" fill="rgb(224, 224, 220)" fill-opacity="0.77"/><path d="M303,333L231,185L191,195Z" fill="rgb(221, 221, 221)" fill-opacity="0.44"/><path d="M211,150L185,142L211,138Z" fill="rgb(241, 240, 237)" fill-opacity="0.60"/><path d="M69,174L76,167L55,172Z" fill="rgb(203, 208, 220)" fill-opacity="0.63"/><path d="M226,187L223,145L189,155Z" fill="rgb(89, 51, 40)" fill-opacity="0.45"/><path d="M42,163L53,186L51,269Z" fill="rgb(222, 222, 221)" fill-opacity="0.67"/><path d="M123,200L112,194L123,190Z" fill="rgb(151, 128, 118)" fill-opacity="0.59"/><path d="M194,159L179,139L109,149Z" fill="rgb(58, 55, 54)" fill-opacity="0.51"/><path d="M201,156L230,175L231,143Z" fill="rgb(93, 64, 60)" fill-opacity="0.46"/><path d="M144,36L84,48L101,36Z" fill="rgb(28, 7, 0)" fill-opacity="0.45"/><path d="M159,141L180,132L155,141Z" fill="rgb(189, 188, 192)" fill-opacity="0.57"/><path d="M167,172L181,179L180,188Z" fill="rgb(146, 127, 118)" fill-opacity="0.47"/><path d="M180,106L234,147L168,104Z" fill="rgb(91, 64, 53)" fill-opacity="0.58"/><path d="M74,46L109,45L55,67Z" fill="rgb(133, 97, 72)" fill-opacity="0.56"/><path d="M208,149L179,111L218,145Z" fill="rgb(241, 241, 239)" fill-opacity="0.55"/><path d="M63,115L82,112L50,108Z" fill="rgb(26, 17, 14)" fill-opacity="0.52"/><path d="M169,228L131,234L86,201Z" fill="rgb(54, 72, 87)" fill-opacity="0.18"/><path d="M45,57L26,49L31,43Z" fill="rgb(15, 0, 0)" fill-opacity="0.52"/><path d="M120,153L130,155L101,117Z" fill="rgb(171, 170, 173)" fill-opacity="0.42"/><path d="M171,131L196,164L146,107Z" fill="rgb(55, 45, 42)" fill-opacity="0.72"/><path d="M184,99L174,93L197,123Z" fill="rgb(150, 137, 130)" fill-opacity="0.42"/><path d="M102,146L105,154L65,159Z" fill="rgb(13, 13, 12)" fill-opacity="0.43"/><path d="M115,92L119,103L138,102Z" fill="rgb(23, 6, 0)" fill-opacity="0.47"/><path d="M71,50L109,51L60,110Z" fill="rgb(153, 118, 91)" fill-opacity="0.46"/><path d="M28,63L141,45L48,83Z" fill="rgb(152, 120, 95)" fill-opacity="0.48"/><path d="M64,226L59,242L133,227Z" fill="rgb(148, 151, 155)" fill-opacity="0.58"/><path d="M67,173L67,177L88,171Z" fill="rgb(28, 30, 34)" fill-opacity="0.51"/><path d="M194,115L188,96L210,122Z" fill="rgb(240, 240, 240)" fill-opacity="0.66"/><path d="M121,139L122,143L160,123Z" fill="rgb(59, 54, 54)" fill-opacity="0.65"/><path d="M74,165L68,171L75,171Z" fill="rgb(228, 233, 241)" fill-opacity="0.50"/><path d="M162,79L154,60L150,77Z" fill="rgb(82, 57, 42)" fill-opacity="0.70"/><path d="M111,86L108,76L112,60Z" fill="rgb(18, 12, 4)" fill-opacity="0.39"/><path d="M81,99L65,112L43,88Z" fill="rgb(151, 117, 91)" fill-opacity="0.55"/><path d="M203,184L183,173L161,222Z" fill="rgb(96, 74, 71)" fill-opacity="0.62"/><path d="M46,80L63,95L72,78Z" fill="rgb(85, 60, 43)" fill-opacity="0.51"/><path d="M170,144L152,119L176,143Z" fill="rgb(122, 118, 118)" fill-opacity="0.63"/><path d="M43,42L72,56L63,63Z" fill="rgb(58, 42, 35)" fill-opacity="0.67"/><path d="M55,204L80,191L45,163Z" fill="rgb(88, 61, 53)" fill-opacity="0.34"/><path d="M119,136L109,123L130,118Z" fill="rgb(38, 42, 49)" fill-opacity="0.48"/><path d="M67,137L51,138L49,141Z" fill="rgb(250, 250, 251)" fill-opacity="0.51"/><path d="M231,186L197,192L215,171Z" fill="rgb(95, 61, 56)" fill-opacity="0.50"/><path d="M108,88L82,98L84,46Z" fill="rgb(142, 108, 84)" fill-opacity="0.80"/><path d="M157,36L150,72L174,40Z" fill="rgb(141, 103, 78)" fill-opacity="0.51"/><path d="M157,107L151,116L191,111Z" fill="rgb(63, 40, 30)" fill-opacity="0.57"/><path d="M60,32L69,55L58,53Z" fill="rgb(32, 28, 25)" fill-opacity="0.47"/><path d="M63,138L81,137L85,145Z" fill="rgb(37, 36, 38)" fill-opacity="0.55"/><path d="M112,149L131,147L113,154Z" fill="rgb(32, 31, 33)" fill-opacity="0.48"/><path d="M125,147L142,141L121,146Z" fill="rgb(244, 242, 246)" fill-opacity="0.48"/><path d="M100,111L106,103L73,114Z" fill="rgb(23, 10, 7)" fill-opacity="0.60"/><path d="M191,184L193,168L223,166Z" fill="rgb(217, 189, 134)" fill-opacity="0.28"/><path d="M94,160L101,154L90,157Z" fill="rgb(225, 231, 235)" fill-opacity="0.46"/><path d="M48,201L45,143L32,134Z" fill="rgb(229, 225, 225)" fill-opacity="0.51"/><path d="M183,105L187,111L186,77Z" fill="rgb(240, 239, 237)" fill-opacity="0.38"/><path d="M25,-5L26,77L-139,40Z" fill="rgb(254, 254, 254)" fill-opacity="0.56"/><path d="M179,112L186,94L173,89Z" fill="rgb(64, 38, 22)" fill-opacity="0.43"/><path d="M53,158L64,164L58,174Z" fill="rgb(177, 176, 179)" fill-opacity="0.55"/><path d="M60,180L80,211L52,194Z" fill="rgb(73, 41, 35)" fill-opacity="0.49"/><path d="M57,146L75,146L61,150Z" fill="rgb(56, 48, 46)" fill-opacity="0.49"/><path d="M129,120L130,126L133,120Z" fill="rgb(252, 255, 255)" fill-opacity="0.45"/><path d="M119,82L166,81L133,98Z" fill="rgb(142, 107, 83)" fill-opacity="0.56"/><path d="M124,138L91,143L94,147Z" fill="rgb(60, 54, 53)" fill-opacity="0.66"/><path d="M26,50L30,60L53,42Z" fill="rgb(27, 7, 0)" fill-opacity="0.52"/><path d="M137,223L166,218L161,231Z" fill="rgb(180, 180, 181)" fill-opacity="0.63"/><path d="M125,63L128,63L116,58Z" fill="rgb(183, 185, 171)" fill-opacity="0.51"/><path d="M213,135L224,140L232,167Z" fill="rgb(88, 60, 49)" fill-opacity="0.64"/><path d="M125,211L58,226L57,201Z" fill="rgb(93, 64, 59)" fill-opacity="0.69"/><path d="M62,295L359,183L189,213Z" fill="rgb(231, 231, 231)" fill-opacity="0.64"/><path d="M61,99L50,99L74,89Z" fill="rgb(196, 157, 125)" fill-opacity="0.42"/><path d="M105,134L96,141L136,135Z" fill="rgb(180, 177, 179)" fill-opacity="0.52"/><path d="M199,128L200,150L219,146Z" fill="rgb(231, 229, 226)" fill-opacity="0.60"/><path d="M185,42L185,77L180,26Z" fill="rgb(121, 78, 59)" fill-opacity="0.57"/><path d="M137,123L162,114L122,112Z" fill="rgb(67, 48, 40)" fill-opacity="0.54"/><path d="M-61,-6L210,-1L73,40Z" fill="rgb(255, 255, 255)" fill-opacity="0.56"/><path d="M171,149L154,167L207,153Z" fill="rgb(93, 66, 56)" fill-opacity="0.55"/><path d="M112,133L114,129L59,140Z" fill="rgb(39, 35, 35)" fill-opacity="0.55"/><path d="M79,132L74,130L88,128Z" fill="rgb(252, 255, 255)" fill-opacity="0.49"/><path d="M245,175L270,202L219,190Z" fill="rgb(233, 233, 233)" fill-opacity="0.81"/><path d="M208,208L186,216L207,191Z" fill="rgb(158, 158, 159)" fill-opacity="0.51"/><path d="M93,233L198,203L78,219Z" fill="rgb(75, 89, 97)" fill-opacity="0.40"/><path d="M130,134L144,113L138,150Z" fill="rgb(54, 51, 54)" fill-opacity="0.49"/><path d="M119,104L152,104L74,120Z" fill="rgb(168, 136, 112)" fill-opacity="0.37"/><path d="M129,198L156,203L124,210Z" fill="rgb(46, 26, 22)" fill-opacity="0.39"/><path d="M93,64L107,61L103,56Z" fill="rgb(184, 179, 130)" fill-opacity="0.46"/><path d="M176,173L150,193L125,189Z" fill="rgb(41, 7, 0)" fill-opacity="0.41"/><path d="M180,141L154,109L189,144Z" fill="rgb(255, 254, 251)" fill-opacity="0.42"/><path d="M32,53L68,77L55,49Z" fill="rgb(147, 109, 83)" fill-opacity="0.47"/><path d="M31,66L84,71L64,60Z" fill="rgb(157, 124, 101)" fill-opacity="0.42"/><path d="M92,130L104,127L101,123Z" fill="rgb(170, 184, 196)" fill-opacity="0.46"/><path d="M110,83L166,70L115,71Z" fill="rgb(142, 99, 69)" fill-opacity="0.54"/><path d="M97,135L99,142L109,157Z" fill="rgb(192, 188, 191)" fill-opacity="0.48"/><path d="M180,191L199,193L186,163Z" fill="rgb(92, 57, 49)" fill-opacity="0.49"/></svg>
