<svg xmlns="http://www.w3.org/2000/svg" viewBox="0 0 256 171.35793579357934" clip-path="url(#clip)"><defs><clipPath id="clip" clipPathUnits="objectBoundingBox"><rect x="0" y="0" width="256" height="171.35793579357934"/></clipPath></defs><rect x="0" y="0" width="256" height="171.35793579357934" fill="rgb(232, 230, 231)"/><path d="M154,67L135,71L164,75Z" fill="rgb(157, 154, 153)" fill-opacity="0.65"/><path d="M168,59L195,97L167,69Z" fill="rgb(166, 164, 163)" fill-opacity="0.53"/><path d="M251,104L181,170L251,153Z" fill="rgb(255, 255, 255)" fill-opacity="0.76"/><path d="M241,89L227,89L237,96Z" fill="rgb(94, 90, 89)" fill-opacity="0.50"/><path d="M213,81L193,77L204,90Z" fill="rgb(144, 141, 140)" fill-opacity="0.47"/><path d="M208,106L207,74L215,50Z" fill="rgb(135, 132, 132)" fill-opacity="0.51"/><path d="M34,97L53,61L51,83Z" fill="rgb(180, 178, 176)" fill-opacity="0.53"/><path d="M181,77L192,83L168,96Z" fill="rgb(181, 178, 178)" fill-opacity="0.53"/><path d="M105,98L104,68L98,67Z" fill="rgb(149, 145, 143)" fill-opacity="0.51"/><path d="M232,71L246,63L237,76Z" fill="rgb(145, 142, 141)" fill-opacity="0.53"/><path d="M112,73L72,74L101,79Z" fill="rgb(241, 241, 241)" fill-opacity="0.62"/><path d="M153,93L-34,95L72,344Z" fill="rgb(238, 237, 237)" fill-opacity="0.97"/><path d="M173,86L170,92L176,95Z" fill="rgb(37, 31, 28)" fill-opacity="0.42"/><path d="M201,84L236,86L227,100Z" fill="rgb(229, 227, 228)" fill-opacity="0.69"/><path d="M197,125L197,71L171,96Z" fill="rgb(236, 236, 236)" fill-opacity="0.70"/><path d="M211,104L184,119L205,170Z" fill="rgb(254, 255, 255)" fill-opacity="0.66"/><path d="M211,89L205,94L213,93Z" fill="rgb(36, 31, 30)" fill-opacity="0.48"/><path d="M257,88L185,24L263,-34Z" fill="rgb(217, 216, 217)" fill-opacity="0.63"/><path d="M62,102L56,117L16,44Z" fill="rgb(240, 239, 239)" fill-opacity="0.58"/><path d="M252,82L267,88L249,110Z" fill="rgb(202, 201, 201)" fill-opacity="0.57"/><path d="M77,72L79,93L60,66Z" fill="rgb(195, 192, 191)" fill-opacity="0.47"/><path d="M38,67L36,73L54,73Z" fill="rgb(131, 125, 122)" fill-opacity="0.42"/><path d="M165,70L143,91L148,98Z" fill="rgb(186, 183, 182)" fill-opacity="0.50"/><path d="M159,79L154,77L155,86Z" fill="rgb(96, 91, 88)" fill-opacity="0.50"/><path d="M150,68L144,69L145,79Z" fill="rgb(91, 86, 85)" fill-opacity="0.44"/><path d="M72,83L64,91L64,102Z" fill="rgb(164, 161, 159)" fill-opacity="0.49"/><path d="M242,74L236,70L232,74Z" fill="rgb(98, 94, 92)" fill-opacity="0.50"/><path d="M7,72L13,98L14,62Z" fill="rgb(179, 175, 173)" fill-opacity="0.43"/><path d="M163,87L147,81L150,97Z" fill="rgb(244, 243, 243)" fill-opacity="0.60"/><path d="M200,115L216,112L254,122Z" fill="rgb(189, 191, 190)" fill-opacity="0.49"/><path d="M239,119L225,141L205,119Z" fill="rgb(255, 255, 255)" fill-opacity="0.58"/><path d="M176,73L171,66L169,70Z" fill="rgb(78, 74, 74)" fill-opacity="0.53"/><path d="M91,86L89,74L95,81Z" fill="rgb(128, 122, 119)" fill-opacity="0.52"/><path d="M213,75L206,71L209,69Z" fill="rgb(42, 36, 35)" fill-opacity="0.49"/><path d="M148,63L148,76L160,61Z" fill="rgb(230, 229, 230)" fill-opacity="0.53"/><path d="M110,91L103,88L94,97Z" fill="rgb(166, 163, 161)" fill-opacity="0.49"/><path d="M43,92L38,86L37,94Z" fill="rgb(80, 74, 70)" fill-opacity="0.37"/><path d="M215,145L223,145L209,131Z" fill="rgb(223, 223, 223)" fill-opacity="0.50"/><path d="M235,113L240,117L221,116Z" fill="rgb(131, 133, 133)" fill-opacity="0.35"/><path d="M220,29L237,9L232,-2Z" fill="rgb(237, 236, 235)" fill-opacity="0.50"/><path d="M236,89L238,91L236,100Z" fill="rgb(50, 49, 50)" fill-opacity="0.52"/><path d="M207,69L212,48L250,68Z" fill="rgb(219, 218, 218)" fill-opacity="0.69"/><path d="M78,83L73,86L77,79Z" fill="rgb(80, 73, 71)" fill-opacity="0.53"/><path d="M76,110L65,83L84,85Z" fill="rgb(248, 247, 247)" fill-opacity="0.50"/><path d="M249,139L230,125L249,106Z" fill="rgb(255, 255, 255)" fill-opacity="0.61"/><path d="M208,97L211,91L211,79Z" fill="rgb(75, 73, 74)" fill-opacity="0.47"/><path d="M50,85L41,81L41,97Z" fill="rgb(245, 243, 244)" fill-opacity="0.49"/><path d="M235,97L233,91L238,91Z" fill="rgb(35, 28, 26)" fill-opacity="0.50"/><path d="M141,69L158,86L98,97Z" fill="rgb(238, 237, 237)" fill-opacity="0.65"/><path d="M186,82L180,76L182,84Z" fill="rgb(88, 82, 78)" fill-opacity="0.47"/><path d="M16,79L-2,66L20,97Z" fill="rgb(245, 245, 245)" fill-opacity="0.48"/><path d="M226,116L212,110L237,109Z" fill="rgb(255, 255, 255)" fill-opacity="0.49"/><path d="M17,93L7,93L13,88Z" fill="rgb(122, 116, 113)" fill-opacity="0.48"/><path d="M186,95L163,83L221,86Z" fill="rgb(234, 232, 233)" fill-opacity="0.59"/><path d="M194,167L217,87L193,114Z" fill="rgb(255, 255, 254)" fill-opacity="0.51"/><path d="M40,78L57,57L42,65Z" fill="rgb(245, 244, 244)" fill-opacity="0.55"/><path d="M66,86L63,95L69,93Z" fill="rgb(76, 70, 66)" fill-opacity="0.35"/><path d="M215,113L235,120L213,118Z" fill="rgb(161, 161, 162)" fill-opacity="0.47"/><path d="M44,125L33,74L7,99Z" fill="rgb(240, 238, 239)" fill-opacity="0.53"/><path d="M64,11L69,100L128,-84Z" fill="rgb(244, 243, 243)" fill-opacity="0.48"/><path d="M31,128L58,75L66,99Z" fill="rgb(241, 239, 240)" fill-opacity="0.86"/><path d="M175,21L-32,79L28,-63Z" fill="rgb(239, 238, 238)" fill-opacity="0.69"/><path d="M102,85L105,95L100,93Z" fill="rgb(111, 105, 100)" fill-opacity="0.36"/><path d="M8,76L10,68L17,69Z" fill="rgb(127, 121, 118)" fill-opacity="0.46"/><path d="M67,75L62,70L68,68Z" fill="rgb(74, 68, 67)" fill-opacity="0.44"/><path d="M142,89L147,91L150,89Z" fill="rgb(156, 152, 149)" fill-opacity="0.47"/><path d="M39,156L32,139L30,191Z" fill="rgb(252, 250, 251)" fill-opacity="0.44"/><path d="M180,80L176,112L175,66Z" fill="rgb(246, 245, 246)" fill-opacity="0.60"/><path d="M224,55L214,58L229,11Z" fill="rgb(236, 235, 235)" fill-opacity="0.60"/><path d="M235,81L242,103L242,66Z" fill="rgb(210, 209, 210)" fill-opacity="0.57"/><path d="M171,65L173,75L175,71Z" fill="rgb(69, 65, 67)" fill-opacity="0.49"/><path d="M223,56L226,106L233,6Z" fill="rgb(207, 205, 206)" fill-opacity="0.51"/><path d="M47,83L50,84L52,78Z" fill="rgb(35, 28, 27)" fill-opacity="0.52"/><path d="M183,79L156,74L201,71Z" fill="rgb(229, 228, 228)" fill-opacity="0.67"/><path d="M83,84L68,109L106,85Z" fill="rgb(244, 242, 243)" fill-opacity="0.65"/><path d="M212,113L212,118L207,121Z" fill="rgb(134, 135, 135)" fill-opacity="0.57"/><path d="M177,67L184,15L162,71Z" fill="rgb(219, 217, 218)" fill-opacity="0.52"/><path d="M78,84L72,81L77,79Z" fill="rgb(78, 71, 69)" fill-opacity="0.43"/><path d="M144,93L149,93L146,89Z" fill="rgb(70, 64, 60)" fill-opacity="0.52"/><path d="M208,28L206,62L225,-6Z" fill="rgb(238, 237, 237)" fill-opacity="0.65"/><path d="M159,81L171,96L160,65Z" fill="rgb(237, 237, 237)" fill-opacity="0.50"/><path d="M229,124L241,89L233,100Z" fill="rgb(234, 234, 234)" fill-opacity="0.46"/><path d="M200,84L195,84L201,79Z" fill="rgb(6, 0, 0)" fill-opacity="0.44"/><path d="M202,87L197,78L201,80Z" fill="rgb(85, 82, 82)" fill-opacity="0.48"/><path d="M200,134L223,111L211,139Z" fill="rgb(255, 255, 255)" fill-opacity="0.36"/><path d="M251,161L250,167L211,164Z" fill="rgb(255, 255, 255)" fill-opacity="0.59"/><path d="M144,68L142,76L145,68Z" fill="rgb(126, 120, 116)" fill-opacity="0.49"/><path d="M194,128L186,157L192,114Z" fill="rgb(212, 210, 210)" fill-opacity="0.42"/><path d="M185,40L187,62L178,79Z" fill="rgb(210, 209, 209)" fill-opacity="0.49"/><path d="M207,111L219,95L175,91Z" fill="rgb(231, 229, 230)" fill-opacity="0.62"/><path d="M212,67L208,76L212,74Z" fill="rgb(71, 68, 70)" fill-opacity="0.47"/><path d="M65,75L76,79L85,66Z" fill="rgb(250, 250, 251)" fill-opacity="0.44"/><path d="M221,138L209,136L201,138Z" fill="rgb(151, 152, 152)" fill-opacity="0.44"/><path d="M203,58L207,81L200,97Z" fill="rgb(235, 235, 235)" fill-opacity="0.55"/><path d="M46,75L62,70L13,99Z" fill="rgb(241, 240, 240)" fill-opacity="0.56"/><path d="M213,119L217,128L210,106Z" fill="rgb(253, 253, 253)" fill-opacity="0.50"/><path d="M50,63L60,64L53,100Z" fill="rgb(239, 238, 238)" fill-opacity="0.57"/><path d="M27,63L15,64L13,79Z" fill="rgb(244, 243, 243)" fill-opacity="0.55"/><path d="M225,117L225,105L234,156Z" fill="rgb(255, 255, 255)" fill-opacity="0.70"/><path d="M136,185L162,76L162,113Z" fill="rgb(248, 247, 248)" fill-opacity="0.51"/><path d="M48,76L47,69L51,70Z" fill="rgb(101, 93, 91)" fill-opacity="0.51"/></svg>
