<svg xmlns="http://www.w3.org/2000/svg" viewBox="0 0 256 169.458407079646" clip-path="url(#clip)"><defs><clipPath id="clip" clipPathUnits="objectBoundingBox"><rect x="0" y="0" width="256" height="169.458407079646"/></clipPath></defs><rect x="0" y="0" width="256" height="169.458407079646" fill="rgb(230, 230, 228)"/><path d="M142,82L106,535L61,70Z" fill="rgb(53, 43, 7)" fill-opacity="0.48"/><path d="M138,76L89,12L73,105Z" fill="rgb(167, 165, 158)" fill-opacity="0.88"/><path d="M257,199L139,115L125,-3Z" fill="rgb(243, 243, 243)" fill-opacity="0.80"/><path d="M124,199L96,162L101,93Z" fill="rgb(252, 255, 255)" fill-opacity="0.59"/><path d="M110,91L110,63L79,72Z" fill="rgb(255, 255, 255)" fill-opacity="0.45"/><path d="M94,56L78,75L67,73Z" fill="rgb(84, 82, 68)" fill-opacity="0.53"/><path d="M113,141L144,142L120,59Z" fill="rgb(50, 49, 8)" fill-opacity="0.39"/><path d="M140,167L136,140L111,160Z" fill="rgb(63, 76, 44)" fill-opacity="0.48"/><path d="M139,111L129,148L143,143Z" fill="rgb(145, 138, 111)" fill-opacity="0.74"/><path d="M83,43L93,39L79,35Z" fill="rgb(4, 2, 5)" fill-opacity="0.50"/><path d="M8,178L101,5L-169,13Z" fill="rgb(249, 249, 250)" fill-opacity="0.65"/><path d="M99,211L87,63L67,142Z" fill="rgb(113, 93, 53)" fill-opacity="0.45"/><path d="M89,35L129,-20L25,2Z" fill="rgb(234, 234, 234)" fill-opacity="0.64"/><path d="M119,84L135,73L128,136Z" fill="rgb(75, 73, 41)" fill-opacity="0.53"/><path d="M97,44L84,61L116,61Z" fill="rgb(99, 97, 98)" fill-opacity="0.58"/><path d="M112,70L108,187L89,61Z" fill="rgb(211, 212, 221)" fill-opacity="0.53"/><path d="M125,35L99,46L122,61Z" fill="rgb(252, 252, 254)" fill-opacity="0.63"/><path d="M72,114L69,93L78,105Z" fill="rgb(250, 248, 242)" fill-opacity="0.53"/><path d="M134,90L102,56L133,68Z" fill="rgb(132, 121, 93)" fill-opacity="0.49"/><path d="M63,75L90,115L87,95Z" fill="rgb(99, 81, 50)" fill-opacity="0.58"/><path d="M79,70L32,-29L88,50Z" fill="rgb(242, 243, 242)" fill-opacity="0.73"/><path d="M68,120L71,99L65,104Z" fill="rgb(43, 13, 0)" fill-opacity="0.53"/><path d="M97,105L76,154L80,91Z" fill="rgb(112, 96, 66)" fill-opacity="0.61"/><path d="M71,111L68,149L67,73Z" fill="rgb(67, 46, 7)" fill-opacity="0.56"/><path d="M127,126L113,130L125,130Z" fill="rgb(199, 190, 186)" fill-opacity="0.45"/><path d="M116,153L94,161L104,220Z" fill="rgb(226, 228, 233)" fill-opacity="0.55"/><path d="M193,113L194,179L291,125Z" fill="rgb(254, 254, 255)" fill-opacity="0.64"/><path d="M70,112L70,93L79,97Z" fill="rgb(234, 233, 229)" fill-opacity="0.48"/><path d="M73,120L77,202L66,160Z" fill="rgb(161, 152, 125)" fill-opacity="0.70"/><path d="M226,145L229,154L226,123Z" fill="rgb(73, 73, 73)" fill-opacity="0.52"/><path d="M117,-38L134,65L109,51Z" fill="rgb(239, 239, 239)" fill-opacity="0.76"/><path d="M262,124L133,75L264,-3Z" fill="rgb(239, 239, 239)" fill-opacity="0.78"/><path d="M69,85L89,54L68,102Z" fill="rgb(103, 94, 72)" fill-opacity="0.49"/><path d="M117,76L113,133L109,102Z" fill="rgb(68, 71, 53)" fill-opacity="0.59"/><path d="M76,43L106,22L112,42Z" fill="rgb(0, 0, 30)" fill-opacity="0.15"/><path d="M147,208L137,152L112,144Z" fill="rgb(95, 100, 77)" fill-opacity="0.70"/><path d="M112,128L116,168L129,163Z" fill="rgb(80, 94, 73)" fill-opacity="0.65"/><path d="M252,95L232,136L260,182Z" fill="rgb(254, 254, 254)" fill-opacity="0.56"/><path d="M104,212L97,166L134,166Z" fill="rgb(226, 219, 217)" fill-opacity="0.33"/><path d="M63,77L66,141L4,186Z" fill="rgb(250, 250, 251)" fill-opacity="0.60"/><path d="M72,112L68,123L64,114Z" fill="rgb(61, 39, 2)" fill-opacity="0.47"/><path d="M100,151L119,199L111,127Z" fill="rgb(226, 227, 231)" fill-opacity="0.70"/><path d="M228,197L151,104L137,160Z" fill="rgb(241, 241, 242)" fill-opacity="0.64"/><path d="M82,24L112,23L90,45Z" fill="rgb(177, 178, 182)" fill-opacity="0.45"/><path d="M97,55L130,47L125,24Z" fill="rgb(241, 241, 242)" fill-opacity="0.34"/><path d="M242,119L240,111L217,113Z" fill="rgb(163, 163, 165)" fill-opacity="0.52"/><path d="M115,118L110,117L113,92Z" fill="rgb(36, 44, 14)" fill-opacity="0.39"/><path d="M98,80L92,61L82,71Z" fill="rgb(251, 254, 255)" fill-opacity="0.43"/><path d="M69,62L76,85L80,63Z" fill="rgb(176, 177, 165)" fill-opacity="0.52"/><path d="M111,105L111,99L130,98Z" fill="rgb(51, 52, 18)" fill-opacity="0.53"/><path d="M257,50L88,-4L108,27Z" fill="rgb(235, 235, 234)" fill-opacity="1.00"/><path d="M111,63L105,54L110,55Z" fill="rgb(41, 27, 1)" fill-opacity="0.53"/><path d="M108,60L129,60L120,86Z" fill="rgb(153, 144, 119)" fill-opacity="0.43"/><path d="M103,74L89,48L95,65Z" fill="rgb(141, 141, 143)" fill-opacity="0.57"/><path d="M212,159L207,163L214,160Z" fill="rgb(174, 174, 173)" fill-opacity="0.51"/><path d="M90,29L103,28L80,-28Z" fill="rgb(234, 234, 236)" fill-opacity="0.53"/><path d="M87,32L96,35L100,27Z" fill="rgb(124, 122, 122)" fill-opacity="0.43"/><path d="M109,38L107,36L105,48Z" fill="rgb(41, 41, 43)" fill-opacity="0.54"/><path d="M65,8L84,65L88,54Z" fill="rgb(242, 242, 242)" fill-opacity="0.64"/><path d="M89,59L109,85L87,73Z" fill="rgb(227, 227, 230)" fill-opacity="0.53"/><path d="M106,44L89,45L95,67Z" fill="rgb(138, 137, 139)" fill-opacity="0.58"/><path d="M70,98L70,105L74,101Z" fill="rgb(255, 255, 255)" fill-opacity="0.60"/><path d="M81,91L88,67L90,100Z" fill="rgb(179, 179, 164)" fill-opacity="0.46"/><path d="M209,116L209,112L226,116Z" fill="rgb(156, 156, 157)" fill-opacity="0.49"/><path d="M100,78L98,73L98,103Z" fill="rgb(149, 146, 143)" fill-opacity="0.50"/><path d="M89,79L94,141L98,113Z" fill="rgb(123, 106, 72)" fill-opacity="0.47"/><path d="M92,59L79,72L76,71Z" fill="rgb(44, 41, 31)" fill-opacity="0.52"/><path d="M65,155L65,102L62,81Z" fill="rgb(245, 245, 246)" fill-opacity="0.67"/><path d="M115,149L134,160L132,145Z" fill="rgb(42, 57, 27)" fill-opacity="0.36"/><path d="M97,30L105,34L107,49Z" fill="rgb(212, 215, 222)" fill-opacity="0.36"/><path d="M90,51L88,35L81,38Z" fill="rgb(33, 32, 32)" fill-opacity="0.45"/><path d="M223,107L223,117L225,115Z" fill="rgb(77, 77, 78)" fill-opacity="0.47"/><path d="M112,122L126,123L122,101Z" fill="rgb(133, 132, 111)" fill-opacity="0.55"/><path d="M115,68L97,150L98,95Z" fill="rgb(189, 189, 189)" fill-opacity="0.62"/><path d="M84,166L72,158L75,206Z" fill="rgb(122, 110, 82)" fill-opacity="0.73"/><path d="M85,52L63,51L95,42Z" fill="rgb(239, 239, 240)" fill-opacity="0.48"/><path d="M235,117L228,114L235,107Z" fill="rgb(255, 255, 255)" fill-opacity="0.62"/><path d="M200,103L252,108L190,114Z" fill="rgb(255, 255, 255)" fill-opacity="0.58"/><path d="M121,134L107,141L131,136Z" fill="rgb(198, 200, 197)" fill-opacity="0.37"/><path d="M115,120L121,116L111,114Z" fill="rgb(64, 80, 53)" fill-opacity="0.50"/><path d="M114,112L128,106L127,101Z" fill="rgb(25, 36, 0)" fill-opacity="0.46"/><path d="M122,114L113,112L124,110Z" fill="rgb(201, 183, 168)" fill-opacity="0.49"/><path d="M130,106L138,166L136,182Z" fill="rgb(196, 172, 136)" fill-opacity="0.54"/><path d="M98,88L93,100L92,97Z" fill="rgb(105, 101, 95)" fill-opacity="0.52"/><path d="M93,90L69,97L73,82Z" fill="rgb(133, 122, 93)" fill-opacity="0.48"/><path d="M143,142L110,138L135,145Z" fill="rgb(78, 85, 61)" fill-opacity="0.47"/><path d="M211,108L223,133L228,127Z" fill="rgb(248, 248, 249)" fill-opacity="0.53"/><path d="M94,74L111,67L114,80Z" fill="rgb(240, 241, 242)" fill-opacity="0.40"/><path d="M91,80L83,69L74,73Z" fill="rgb(170, 171, 156)" fill-opacity="0.51"/><path d="M218,130L223,120L215,150Z" fill="rgb(215, 215, 215)" fill-opacity="0.53"/><path d="M84,96L87,107L75,83Z" fill="rgb(79, 62, 33)" fill-opacity="0.53"/><path d="M86,32L88,44L84,39Z" fill="rgb(0, 0, 0)" fill-opacity="0.42"/><path d="M119,99L113,98L118,96Z" fill="rgb(188, 160, 141)" fill-opacity="0.50"/><path d="M73,113L80,111L71,133Z" fill="rgb(176, 171, 144)" fill-opacity="0.46"/><path d="M221,116L216,116L220,110Z" fill="rgb(108, 108, 110)" fill-opacity="0.46"/><path d="M66,136L71,118L67,94Z" fill="rgb(78, 55, 8)" fill-opacity="0.44"/><path d="M100,72L100,69L93,59Z" fill="rgb(101, 102, 102)" fill-opacity="0.56"/><path d="M90,54L54,73L55,33Z" fill="rgb(245, 245, 245)" fill-opacity="0.67"/><path d="M214,136L197,105L192,188Z" fill="rgb(255, 255, 255)" fill-opacity="0.73"/><path d="M77,49L61,81L-35,58Z" fill="rgb(245, 245, 245)" fill-opacity="0.78"/><path d="M72,64L82,61L63,72Z" fill="rgb(186, 187, 186)" fill-opacity="0.55"/></svg>
